<?xml version="1.0" standalone="no"?>
<!DOCTYPE svg PUBLIC "-//W3C//DTD SVG 1.1//EN" "http://www.w3.org/Graphics/SVG/1.1/DTD/svg11.dtd" >
<svg xmlns="http://www.w3.org/2000/svg">
<metadata>Generated by IcoMoon</metadata>
<defs>
<font id="patriafont" horiz-adv-x="1024">
<font-face units-per-em="1024" ascent="960" descent="-64" />
<missing-glyph horiz-adv-x="1024" />
<glyph unicode="&#x20;" horiz-adv-x="512" d="" />
<glyph unicode="&#xe900;" glyph-name="ico-editar_cedula" d="M896 794.027c41.763-1.584 75.216-35.037 76.796-76.653l0.004-0.147v-538.453c-1.584-41.763-35.037-75.216-76.653-76.796l-0.147-0.004h-768c-41.763 1.584-75.216 35.037-76.796 76.653l-0.004 0.147v538.453c1.584 41.763 35.037 75.216 76.653 76.796l0.147 0.004h768zM435.2 678.827h-307.2v-38.4h307.2v38.4zM435.2 602.027h-307.2v-38.4h307.2v37.973zM435.2 524.8h-269.227v-38.4h269.227v38.4zM666.027 374.613c-76.8 0-230.827-42.667-230.827-118.613v-38.4h460.8v38.4c0 76.8-153.6 118.613-230.827 118.613zM550.4 563.2c0-63.623 51.577-115.2 115.2-115.2s115.2 51.577 115.2 115.2c0 63.623-51.577 115.2-115.2 115.2v0c-63.623 0-115.2-51.577-115.2-115.2v0z" />
<glyph unicode="&#xe901;" glyph-name="ico-premios" d="M149.76 64c-0.094-0.832-0.148-1.796-0.148-2.773s0.054-1.941 0.159-2.89l-0.010 0.117 135.253 44.8 37.12-146.773 164.693 283.733c-73.008 7.022-139.036 32.016-195.118 70.461l1.412-0.914c-48.64-82.347-96-164.267-143.36-245.76zM874.24 61.44c-47.36 81.92-94.293 164.267-142.080 245.76-54.699-37.384-120.737-62.235-192.046-68.993l-1.661-0.127 163.84-284.16 37.547 146.773 135.253-45.227c-0.061 2.149-0.369 4.199-0.896 6.158l0.042-0.185zM836.693 586.667c-4.494 6.653-7.174 14.854-7.174 23.68s2.68 17.027 7.271 23.832l-0.096-0.152c4.459 6.373 7.125 14.285 7.125 22.82 0 12.906-6.096 24.389-15.566 31.725l-0.092 0.068c-9.987 7.882-16.34 19.987-16.34 33.576 0 3.221 0.357 6.359 1.033 9.375l-0.054-0.285c3.413 30.72 0 39.253-30.293 54.613-12.589 6.044-21.315 18.335-22.181 32.746l-0.005 0.108c0 0.016 0 0.035 0 0.053 0 22.814-17.905 41.446-40.43 42.609l-0.104 0.004c-16.311 0.656-30.060 10.957-35.745 25.328l-0.095 0.272c-6.22 16.357-21.768 27.77-39.982 27.77-4.303 0-8.457-0.637-12.374-1.822l0.302 0.079c-3.141-0.961-6.752-1.514-10.492-1.514-12.055 0-22.768 5.746-29.549 14.649l-0.066 0.091c-7.878 9.301-19.564 15.165-32.621 15.165-8.476 0-16.376-2.472-23.016-6.734l0.17 0.102c-6.868-4.499-15.281-7.176-24.32-7.176s-17.452 2.677-24.491 7.281l0.171-0.105c-6.016 4.279-13.513 6.841-21.608 6.841-9.773 0-18.674-3.734-25.354-9.853l0.028 0.025c-9.286-13.299-24.519-21.89-41.757-21.89-5.35 0-10.507 0.827-15.349 2.361l0.36-0.098c-0.944 0.074-2.043 0.117-3.153 0.117-17.761 0-32.987-10.852-39.41-26.288l-0.104-0.282c-5.217-14.884-18.748-25.539-34.884-26.449l-0.103-0.005c-26.453-2.56-37.547-15.36-42.667-42.667-1.319-15.049-10.861-27.586-24.060-33.182l-0.26-0.098c-16.132-6.332-27.345-21.767-27.345-39.821 0-3.739 0.481-7.366 1.385-10.823l-0.066 0.297c0.656-2.888 1.032-6.204 1.032-9.608 0-14.179-6.525-26.834-16.735-35.126l-0.084-0.066c-9.235-7.251-15.112-18.415-15.112-30.952 0-8.373 2.622-16.135 7.089-22.507l-0.084 0.126c4.438-6.956 7.074-15.437 7.074-24.533s-2.636-17.577-7.185-24.72l0.111 0.186c-4.825-6.399-7.728-14.484-7.728-23.246 0-11.638 5.12-22.080 13.231-29.196l0.044-0.038c11.498-7.764 18.958-20.747 18.958-35.473 0-2.541-0.222-5.031-0.648-7.45l0.037 0.256c-0.964-3.381-1.518-7.265-1.518-11.278 0-19.081 12.525-35.236 29.802-40.693l0.302-0.082c12.882-5.573 22.031-17.568 23.454-31.838l0.013-0.162c4.693-29.867 13.227-40.107 42.667-42.667 15.624-1.332 28.591-11.442 34.039-25.328l0.094-0.272c6.123-16.546 21.765-28.127 40.113-28.127 4.726 0 9.273 0.768 13.522 2.187l-0.301-0.087c2.912 0.821 6.257 1.293 9.712 1.293 11.767 0 22.256-5.475 29.056-14.018l0.058-0.076c7.854-10.613 20.33-17.418 34.394-17.418 4.162 0 8.185 0.596 11.987 1.707l-0.302-0.076c4.252 1.302 7.927 2.896 11.377 4.841l-0.284-0.147c6.607 4.407 14.73 7.033 23.467 7.033s16.859-2.626 23.623-7.131l-0.156 0.098c6.233-3.767 13.761-5.996 21.811-5.996 13.156 0 24.921 5.954 32.748 15.315l0.055 0.067c7.322 9.558 18.74 15.659 31.583 15.659 3.949 0 7.764-0.577 11.364-1.651l-0.281 0.072c3.9-1.443 8.405-2.278 13.104-2.278 14.441 0 27.040 7.883 33.729 19.581l0.1 0.19c6.851 18.016 23 31.029 42.428 33.258l0.238 0.022c19.056 2.217 33.707 18.264 33.707 37.733 0 0.085 0 0.169-0.001 0.253v-0.013c0.405 16.389 10.581 30.304 24.906 36.17l0.268 0.097c16.813 5.98 28.634 21.756 28.634 40.293 0 4.817-0.798 9.448-2.27 13.767l0.089-0.3c-0.658 2.96-1.035 6.36-1.035 9.848 0 8.275 2.122 16.054 5.852 22.823l-0.124-0.245c2.93 4.891 6.633 9.001 10.986 12.296l0.107 0.078c9.535 7.24 15.63 18.582 15.63 31.349 0 7.318-2.002 14.168-5.489 20.032l0.1-0.181zM590.080 576l18.347-107.52-96.427 49.067-96.853-50.773 18.773 109.227-78.507 74.667 107.947 15.787 48.64 98.133 48.213-98.133 107.947-15.787z" />
<glyph unicode="&#xe902;" glyph-name="ico-cambiar_familia" d="M597.333 291.413c0.39-0.005 0.851-0.009 1.312-0.009 55.376 0 100.267 44.891 100.267 100.267s-44.891 100.267-100.267 100.267c-11.305 0-22.173-1.871-32.311-5.32l0.706 0.209c18.685-26.349 29.87-59.161 29.87-94.586 0-0.347-0.001-0.694-0.003-1.041v0.053c0-0.016 0-0.035 0-0.053 0-35.732-11.177-68.854-30.225-96.060l0.358 0.54c8.65-2.713 18.596-4.276 28.907-4.276 0.487 0 0.974 0.003 1.46 0.010l-0.074-0.001zM430.507 291.413c54.637 0.96 98.56 45.476 98.56 100.252 0 55.376-44.891 100.267-100.267 100.267-55.371 0-100.258-44.883-100.267-100.251v-0.001c-0.001-0.131-0.001-0.286-0.001-0.441 0-54.54 43.733-98.866 98.045-99.824l0.090-0.001zM651.52 219.307c27.844-22.497 45.628-56.487 46.079-94.645l0.001-0.075v-66.56h100.267v66.56c-2.133 51.627-81.493 83.2-148.48 94.72zM426.667 224.853c-66.56 0-200.107-33.28-200.107-100.267v-66.56h400.213v66.56c2.133 67.413-131.413 100.267-200.107 100.267zM725.333 649.813l-106.667-106.24h283.307v283.307l-106.24-106.24c-72.449 72.569-172.599 117.462-283.235 117.462-189.921 0-348.944-132.291-389.947-309.752l-0.524-2.696h103.253c14.607 48.727 39.952 90.482 73.404 124.178l-0.018-0.018c54.497 54.814 129.953 88.74 213.333 88.74s158.837-33.925 213.319-88.726l0.014-0.014z" />
<glyph unicode="&#xe903;" glyph-name="ico-confirmadas" d="M833.28 633.173c0-102.268-82.905-185.173-185.173-185.173s-185.173 82.905-185.173 185.173c0 102.268 82.905 185.173 185.173 185.173s185.173-82.905 185.173-185.173zM388.693 567.893l-65.28 65.28-175.787-171.52-76.8 76.8-65.707-65.28 142.507-142.507 241.067 237.227zM648.107 355.413c-123.733 0-370.773-62.293-370.773-185.173v-92.587h741.547v92.16c0 123.307-247.040 185.6-370.773 185.6z" />
<glyph unicode="&#xe904;" glyph-name="ico-en_espera" d="M836.267 633.173c0-102.268-82.905-185.173-185.173-185.173s-185.173 82.905-185.173 185.173c0 102.268 82.905 185.173 185.173 185.173s185.173-82.905 185.173-185.173zM651.093 355.413c-123.733 0-370.773-62.293-370.773-185.173v-92.587h741.547v92.16c0 123.307-247.040 185.6-370.773 185.6zM187.733 679.68c-102.268 0-185.173-82.905-185.173-185.173s82.905-185.173 185.173-185.173c102.268 0 185.173 82.905 185.173 185.173v0c-0.482 102.074-83.099 184.691-185.127 185.173h-0.046zM280.32 393.387l-128 81.067v124.587h52.48v-96.427l104.107-63.147z" />
<glyph unicode="&#xe905;" glyph-name="ico-encuesta" d="M829.44 810.667h-189.44c-19.125 53.267-69.193 90.679-128 90.679s-108.875-37.412-127.703-89.733l-0.297-0.946h-189.44c0 0-0.001 0-0.001 0-50.042 0-90.637-40.445-90.879-90.43v-634.903c0-50.192 40.688-90.88 90.88-90.88v0h634.88c50.192 0 90.88 40.688 90.88 90.88v0 634.88c-0.242 50.008-40.837 90.453-90.879 90.453 0 0-0.001 0-0.001 0v0zM512 810.667c24.978 0 45.227-20.249 45.227-45.227s-20.249-45.227-45.227-45.227c-24.978 0-45.227 20.249-45.227 45.227v0c0.239 24.881 20.345 44.988 45.204 45.226h0.023zM512 152.32c-125.361 0-226.987 101.625-226.987 226.987s101.625 226.987 226.987 226.987c125.361 0 226.987-101.625 226.987-226.987v0c-0.243-125.178-101.775-226.56-226.986-226.56 0 0 0 0 0 0v0zM684.373 438.187l-56.747 56.32-151.467-148.053-66.56 66.133-56.747-56.32 123.307-123.307 208.213 205.227z" />
<glyph unicode="&#xe906;" glyph-name="ico-inicio" d="M98.987 165.973l0.427-0.427v0.427h-0.427zM906.24 384.427v0 0zM673.28 764.587l52.053-80.213c73.571-0.792 144.751-9.144 213.37-24.314l-6.863 1.274c0.049 1.715 0.078 3.732 0.078 5.757 0 117.821-95.513 213.333-213.333 213.333-3.329 0-6.64-0.076-9.931-0.227l0.467 0.017h-256c-141.713-3.228-258.367-106.547-282.196-241.865l-0.257-1.762-14.080-103.253c140.718 79.078 306.28 132.022 482.558 147.716l4.695 0.337zM346.453 309.333c-90.722-43.154-168.89-94.434-239.046-154.77l1.393 1.17-14.933-113.493c-0.051-0.588-0.081-1.272-0.081-1.963 0-13.196 10.697-23.893 23.893-23.893 7.639 0 14.441 3.585 18.815 9.164l0.039 0.052c51.276 68.856 130.859 114.165 221.186 118.587l0.68 0.027h256c136.971 2.538 250.888 98.236 281.201 226.268l0.399 1.999c-56.886 14.513-122.192 22.842-189.444 22.842-131.37 0-255.316-31.783-364.569-88.080l4.466 2.092zM802.133 652.373l-40.107-46.507 28.587-91.307-89.6 40.107-77.227-46.933 3.413 92.16-55.893 45.653c-156.946-24.007-298.065-74.286-425.055-146.538l6.068 3.178-14.507-112.64-25.6-194.56c85.333 70.4 411.733 306.347 787.2 206.507l30.293 232.107c-35.813 8.054-79.384 14.697-123.763 18.51l-3.81 0.264z" />
<glyph unicode="&#xe907;" glyph-name="ico-jefe_calle" d="M512 874.667c-235.641 0-426.667-191.025-426.667-426.667s191.025-426.667 426.667-426.667c235.641 0 426.667 191.025 426.667 426.667v0c0 235.641-191.025 426.667-426.667 426.667v0zM585.387 287.147h-116.053v140.373h-94.72v-140.373h-118.613v187.307h-68.693l234.667 210.773 234.24-210.773h-70.827zM787.2 439.040v-151.893h-158.72v152.747h101.12l-135.253 136.107 58.027 52.053 204.8-188.587z" />
<glyph unicode="&#xe908;" glyph-name="ico-jefe_familia" d="M512 874.667c-235.641 0-426.667-191.025-426.667-426.667s191.025-426.667 426.667-426.667c235.641 0 426.667 191.025 426.667 426.667v0c0 235.641-191.025 426.667-426.667 426.667v0zM566.187 684.373c8.896 2.976 19.14 4.693 29.784 4.693 53.491 0 96.853-43.363 96.853-96.853s-43.363-96.853-96.853-96.853c-10.645 0-20.888 1.717-30.468 4.89l0.684-0.196c18.818 25.532 30.387 57.424 31.144 91.981l0.003 0.179c-0.549 34.758-12.156 66.702-31.447 92.581l0.3-0.421zM434.347 689.067c53.255-0.001 96.426-43.172 96.426-96.427s-43.172-96.427-96.427-96.427c-53.105 0-96.183 42.929-96.426 95.977v0.023c-0.001 0.127-0.001 0.277-0.001 0.428 0 53.255 43.172 96.427 96.427 96.427 0.15 0 0.301 0 0.451-0.001h-0.023zM627.627 270.507h-386.133v64c0 64.427 128 96.853 193.28 96.853s193.28-32.427 193.28-96.853zM788.907 270.507h-96.427v64c-0.001 36.589-16.51 69.322-42.485 91.158l-0.182 0.149c64.853-11.093 141.227-42.667 141.227-91.307z" />
<glyph unicode="&#xe909;" glyph-name="ico-monedero" d="M757.333 627.2v-93.867c-0.022-30.541-17.109-57.085-42.24-70.617l-0.427-0.21c-8.279 5.257-17.832 10.13-27.841 14.097l-1.172 0.41-155.733 59.307zM266.667 651.947v-417.28s0-68.267 42.667-87.467 391.68-155.733 391.68-155.733 51.2-21.76 52.48 31.573 0 325.973 0 325.973c-0.725 48.025-32.456 88.449-76.029 102.19l-0.771 0.21c-75.52 29.013-194.56 77.653-364.8 145.92-24.579 7.313-42.657 28.551-45.206 54.352l-0.021 0.261zM693.76 743.68l-18.347-42.667 26.027-54.187-58.88 7.253-45.227-45.653-6.4 61.44-36.267 19.2-201.387-81.493 78.933-31.573 68.267-27.733 256 102.827v118.187zM757.333 874.667c-0.711 19.941-17.048 35.837-37.098 35.837-3.969 0-7.793-0.623-11.378-1.776l0.263 0.073h-4.267l-378.88-155.307c-26.886-11.293-45.424-37.407-45.424-67.85 0-24.79 12.292-46.709 31.113-59.995l0.231-0.155 8.96-6.827h2.987l270.933 108.8 10.667 61.867 38.4-42.667 38.827 15.787 76.373 30.72v79.36z" />
<glyph unicode="&#xe90a;" glyph-name="ico-no_pertenezco" d="M597.333 742.4l-17.493 89.6h-409.173v-768h92.587v272.64h253.44l17.92-90.453h318.72v496.213zM669.013 458.24l-52.48-52.907-79.787 79.787-79.36-79.787-53.333 52.48 79.787 79.787-79.787 81.067 52.907 52.907 79.787-79.787 79.787 79.787 52.907-52.907-79.36-81.067z" />
<glyph unicode="&#xe90b;" glyph-name="ico-nucleo_familiar" d="M371.627 362.667c112.213 0 335.787-55.893 335.787-167.253v-112.213h-671.573v113.067c0 111.36 224.427 166.4 335.787 166.4zM819.627 196.267c-0.768 63.849-30.395 120.625-76.418 157.993l-0.382 0.301c112.213-19.2 245.333-72.533 245.333-158.293v-112.213h-168.533zM652.373 811.947c92.725 0 167.893-75.168 167.893-167.893s-75.168-167.893-167.893-167.893v0c-0.295-0.002-0.643-0.003-0.991-0.003-18.106 0-35.519 2.968-51.779 8.444l1.143-0.334c31.697 44.616 50.672 100.199 50.672 160.213s-18.975 115.598-51.254 161.076l0.581-0.863c15.456 4.544 33.22 7.189 51.591 7.253h0.035zM539.307 644.267c-0.243-92.188-75.031-166.826-167.253-166.826-92.371 0-167.253 74.882-167.253 167.253 0 92.221 74.638 167.010 166.803 167.253h0.023c0.127 0 0.277 0.001 0.427 0.001 92.371 0 167.253-74.882 167.253-167.253 0-0.15 0-0.3-0.001-0.451v0.023z" />
<glyph unicode="&#xe90c;" glyph-name="ico-proteccion_social1" d="M637.013 786.347c0-69.043-55.97-125.013-125.013-125.013s-125.013 55.97-125.013 125.013c0 69.043 55.97 125.013 125.013 125.013s125.013-55.97 125.013-125.013zM512 598.613c-85.333 0-250.027-42.667-250.027-125.013v-62.72h500.053v62.72c0 83.2-164.693 125.013-250.027 125.013zM838.4 386.987c7.253 51.2 14.507 100.267 21.76 149.76 1.158 13.287 3.422 25.486 6.738 37.243l-0.338-1.403c4.144 15.034 17.696 25.893 33.784 25.893 3.158 0 6.217-0.418 9.127-1.203l-0.245 0.056c16.064-3.581 27.894-17.712 27.894-34.606 0-1.186-0.058-2.358-0.172-3.514l0.012 0.146c0-90.453-2.133-180.907 0-270.933 0.262-2.791 0.411-6.035 0.411-9.313 0-38.779-20.861-72.686-51.973-91.111l-0.491-0.269c-42.667-30.293-85.333-64.427-130.133-96.427-11.762-7.726-19.42-20.857-19.42-35.778 0-1.525 0.080-3.031 0.236-4.514l-0.016 0.185c0-22.613 0-44.8 2.133-66.133h-151.040c0 58.453-3.84 120.747 0 182.613 1.672 33.231 20.706 61.663 48.154 76.559l0.486 0.241q96 57.173 192.853 113.067c6.118 4.614 13.849 7.391 22.227 7.391 14.151 0 26.452-7.918 32.715-19.566l0.097-0.198c2.597-5.004 4.12-10.926 4.12-17.203 0-15.52-9.31-28.865-22.65-34.755l-0.243-0.096c-37.547-22.187-75.52-42.667-113.067-66.56-3.487-1.556-5.873-4.993-5.873-8.988 0-1.71 0.437-3.317 1.206-4.717l-0.026 0.051c2.987-5.973 9.387-5.547 14.507-2.56 38.4 21.333 75.947 42.667 113.493 65.707 19.439 9.406 32.608 28.979 32.608 51.627 0 31.576-25.597 57.173-57.173 57.173-0.064 0-0.128 0-0.191 0h0.010zM185.6 386.987c-7.253 51.2-14.507 100.267-21.76 149.76-1.158 13.287-3.422 25.486-6.738 37.243l0.338-1.403c-4.144 15.034-17.696 25.893-33.784 25.893-3.158 0-6.217-0.418-9.127-1.203l0.245 0.056c-16.885-2.902-29.571-17.433-29.571-34.928 0-1.072 0.048-2.133 0.141-3.181l-0.010 0.135c0-90.453 2.133-180.907 0-270.933-0.248-2.719-0.39-5.882-0.39-9.077 0-38.945 21.039-72.975 52.371-91.346l0.499-0.27c42.667-30.293 85.333-64.427 130.133-96.427 11.762-7.726 19.42-20.857 19.42-35.778 0-1.525-0.080-3.031-0.236-4.514l0.016 0.185c0-22.613 0-44.8-2.133-66.133h151.040c0 58.453 3.84 120.747 0 182.613-1.672 33.231-20.706 61.663-48.154 76.559l-0.486 0.241q-94.293 57.6-191.147 113.493c-6.118 4.614-13.849 7.391-22.227 7.391-14.151 0-26.452-7.918-32.715-19.566l-0.097-0.198c-2.597-5.004-4.12-10.926-4.12-17.203 0-15.52 9.31-28.865 22.65-34.755l0.243-0.096c37.547-22.187 75.52-42.667 113.067-66.56 3.487-1.556 5.873-4.993 5.873-8.988 0-1.71-0.437-3.317-1.206-4.717l0.026 0.051c-2.987-5.973-9.387-5.547-14.507-2.56-38.4 21.333-75.947 42.667-113.493 65.707-19.439 9.406-32.608 28.979-32.608 51.627 0 31.576 25.597 57.173 57.173 57.173 0.064 0 0.128 0 0.191 0h-0.010z" />
<glyph unicode="&#xe90d;" glyph-name="ico-proteccion_social2" d="M831.573 416.853c7.253 50.347 14.080 98.133 21.333 146.347 1.16 13.131 3.423 25.181 6.736 36.789l-0.336-1.376c3.891 14.887 17.22 25.696 33.074 25.696 3.419 0 6.72-0.503 9.834-1.438l-0.242 0.062c15.59-3.561 27.046-17.309 27.046-33.733 0-1.193-0.060-2.371-0.178-3.533l0.012 0.146c0-88.32 0-177.067 0-265.387 0.245-2.672 0.384-5.779 0.384-8.919 0-38.070-20.519-71.348-51.1-89.377l-0.484-0.264c-42.667-29.44-85.333-63.147-128-94.293-11.489-7.765-18.942-20.743-18.942-35.462 0-1.335 0.061-2.655 0.181-3.958l-0.012 0.167c0-21.76 0-42.667 2.133-64.853h-147.627c0 57.173-3.84 118.187 0 178.773 1.571 32.356 19.917 60.098 46.472 74.858l0.462 0.236q93.867 55.893 188.587 110.507c5.955 4.455 13.464 7.133 21.599 7.133 13.904 0 25.98-7.824 32.066-19.309l0.095-0.197c2.511-4.869 3.983-10.626 3.983-16.727 0-15.152-9.078-28.184-22.092-33.952l-0.237-0.094c-36.693-21.76-74.24-42.667-110.507-65.28-3.39-1.595-5.695-4.982-5.695-8.907 0-1.573 0.37-3.059 1.027-4.376l-0.026 0.057c2.987-5.547 8.96-5.12 14.507-2.133 37.547 20.907 74.24 42.667 111.36 64 18.862 9.246 31.618 28.307 31.618 50.347 0 30.869-25.024 55.893-55.893 55.893-0.016 0-0.032 0-0.048 0h0.003zM192.427 416.853c-7.253 50.347-14.080 98.133-21.333 146.347-1.16 13.131-3.423 25.181-6.736 36.789l0.336-1.376c-3.891 14.887-17.22 25.696-33.074 25.696-3.419 0-6.72-0.503-9.834-1.438l0.242 0.062c-15.59-3.561-27.046-17.309-27.046-33.733 0-1.193 0.060-2.371 0.178-3.533l-0.012 0.146c0-88.32 0-177.067 0-265.387-0.245-2.672-0.384-5.779-0.384-8.919 0-38.070 20.519-71.348 51.1-89.377l0.484-0.264c42.667-29.44 85.333-63.147 128-94.293 11.489-7.765 18.942-20.743 18.942-35.462 0-1.335-0.061-2.655-0.181-3.958l0.012 0.167c0-21.76 0-42.667-2.133-64.853h147.627c0 57.173 3.84 118.187 0 178.773-1.571 32.356-19.917 60.098-46.472 74.858l-0.462 0.236q-93.013 56.32-188.587 110.933c-5.955 4.455-13.464 7.133-21.599 7.133-13.904 0-25.98-7.824-32.066-19.309l-0.095-0.197c-2.511-4.869-3.983-10.626-3.983-16.727 0-15.152 9.078-28.184 22.092-33.952l0.237-0.094c36.693-21.76 74.24-42.667 110.507-65.28 3.39-1.595 5.695-4.982 5.695-8.907 0-1.573-0.37-3.059-1.027-4.376l0.026 0.057c-2.987-5.547-8.96-5.12-14.507-2.133-37.547 20.907-74.24 42.667-111.36 64-18.862 9.246-31.618 28.307-31.618 50.347 0 30.869 25.024 55.893 55.893 55.893 0.016 0 0.032 0 0.048 0h-0.003zM512 395.093l-37.973 34.56c-132.693 121.6-222.72 201.813-222.72 300.373-0.015 0.764-0.023 1.664-0.023 2.566 0 78.469 63.611 142.080 142.080 142.080 0.458 0 0.916-0.002 1.373-0.006l-0.070 0.001c47.079-0.747 88.997-22.213 117.139-55.656l0.194-0.237c28.336 33.68 70.255 55.147 117.206 55.892l0.127 0.002c0.382 0.004 0.834 0.006 1.286 0.006 78.469 0 142.080-63.611 142.080-142.080 0-0.452-0.002-0.904-0.006-1.355l0.001 0.069c0-98.56-88.747-178.773-222.72-300.8z" />
<glyph unicode="&#xe90e;" glyph-name="ico-proteccion_social3" d="M512 54.613l-62.293 56.747c-220.587 200.107-364.373 331.947-364.373 494.080-0.009 0.761-0.014 1.66-0.014 2.56 0 128.896 104.491 233.387 233.387 233.387 0.155 0 0.31 0 0.465 0h-0.024c77.071-0.526 145.979-35.029 192.568-89.26l0.285-0.34c46.875 54.571 115.783 89.074 192.762 89.6h0.092c0.131 0 0.286 0 0.441 0 128.896 0 233.387-104.491 233.387-233.387 0-0.9-0.005-1.799-0.015-2.697l0.001 0.137c0-162.133-145.92-293.973-366.507-494.507z" />
<glyph unicode="&#xe90f;" glyph-name="ico-rechazadas" d="M818.773 629.333c0-100.148-81.186-181.333-181.333-181.333s-181.333 81.186-181.333 181.333c0 100.148 81.186 181.333 181.333 181.333s181.333-81.186 181.333-181.333zM248.32 493.227l96 96.427-64 64-96.427-96-96 96-64.427-64 96.427-96.427-96.427-96 64.427-64.427 96 96.427 96.427-96.427 64 64.427-96 96zM637.44 357.12c-121.173 0-362.667-60.587-362.667-181.333v-90.453h725.333v90.453c0.427 120.747-241.493 181.333-362.667 181.333z" />
<glyph unicode="&#xe910;" glyph-name="ico-solicitudes" d="M836.267 633.173c0-102.268-82.905-185.173-185.173-185.173s-185.173 82.905-185.173 185.173c0 102.268 82.905 185.173 185.173 185.173s185.173-82.905 185.173-185.173zM233.813 540.587v139.093h-92.587v-139.093h-138.667v-92.587h138.667v-139.093h92.587v139.093h139.093v92.587h-139.093zM651.093 355.413c-123.733 0-370.773-62.293-370.773-185.173v-92.587h741.547v92.16c0 123.307-247.040 185.6-370.773 185.6z" />
<glyph unicode="&#xe911;" glyph-name="ico-directorio" d="M757.333 161.28c-58.294 7.438-103.642 54.247-108.767 112.595l-0.033 0.471h64.853c3.84-34.987 27.733-62.293 87.893-62.293s79.787 32.427 79.787 52.907c0 27.307-14.080 52.907-87.893 70.4-82.347 20.053-138.667 53.76-138.667 122.453 3.989 55.841 47.379 100.406 102.328 106.197l0.499 0.043v64h88.747v-64c52.472-11.925 91.266-57.569 92.584-112.497l0.003-0.143h-63.573c0 36.693-21.333 62.293-73.813 62.293s-79.787-22.613-79.787-54.187 22.187-46.507 88.747-63.573 138.667-46.080 138.667-128c-1.969-56.423-46.612-101.807-102.542-104.947l-0.285-0.013v-64.853h-88.747zM256.853 797.867v-90.88h499.627v90.88h-499.627zM256.853 616.533v-90.88h317.867v90.88h-317.867zM256.853 434.773h317.867v-90.88h-317.867v90.88zM75.093 797.867v-90.88h94.293v90.88h-94.293zM75.093 616.533v-90.88h94.293v90.88h-94.293zM75.093 434.773h94.293v-90.88h-94.293v90.88z" />
<glyph unicode="&#xe912;" glyph-name="ico-facebook" d="M725.333 874.667v0-170.667h-85.333c-29.44 0-42.667-34.56-42.667-64v-106.667h128v-170.667h-128v-341.333h-170.667v341.333h-128v170.667h128v170.667c0 94.257 76.41 170.667 170.667 170.667v0z" />
<glyph unicode="&#xe913;" glyph-name="ico-googleplus" d="M981.333 490.667h-85.333v85.333h-85.333v-85.333h-85.333v-85.333h85.333v-85.333h85.333v85.333h85.333zM341.333 490.667v-102.4h170.667c-16.833-73.972-82.041-128.351-159.95-128.351-3.771 0-7.511 0.127-11.218 0.378l0.502-0.027c-103.682 0-187.733 84.051-187.733 187.733s84.051 187.733 187.733 187.733v0c1.323 0.038 2.88 0.060 4.443 0.060 44.802 0 85.414-17.936 115.049-47.018l-0.025 0.025 81.067 76.8c-50.046 50.111-119.219 81.11-195.632 81.11-1.723 0-3.443-0.016-5.159-0.047l0.258 0.004c-164.949 0-298.667-133.718-298.667-298.667s133.718-298.667 298.667-298.667v0c3.578-0.167 7.773-0.262 11.99-0.262 151.517 0 274.347 122.829 274.347 274.347 0 5.646-0.171 11.252-0.507 16.813l0.037-0.764c0.162 2.948 0.255 6.398 0.255 9.87 0 14.647-1.647 28.909-4.767 42.611l0.245-1.282z" />
<glyph unicode="&#xe914;" glyph-name="ico-instagram" d="M332.8 874.667h358.4c136.672 0 247.467-110.795 247.467-247.467v0-358.4c0-136.672-110.795-247.467-247.467-247.467v0h-358.4c-136.672 0-247.467 110.795-247.467 247.467v0 358.4c0 136.672 110.795 247.467 247.467 247.467v0zM324.267 789.333c-84.831 0-153.6-68.769-153.6-153.6v0-375.467c0-84.831 68.769-153.6 153.6-153.6v0h375.467c84.831 0 153.6 68.769 153.6 153.6v0 0 375.467c0 84.831-68.769 153.6-153.6 153.6v0h-375.467zM736 725.333c29.455 0 53.333-23.878 53.333-53.333s-23.878-53.333-53.333-53.333c-29.455 0-53.333 23.878-53.333 53.333v0c0 29.455 23.878 53.333 53.333 53.333v0zM512 661.333c117.821 0 213.333-95.513 213.333-213.333s-95.513-213.333-213.333-213.333c-117.821 0-213.333 95.513-213.333 213.333v0c0 117.821 95.513 213.333 213.333 213.333v0zM512 576c-70.692 0-128-57.308-128-128s57.308-128 128-128c70.692 0 128 57.308 128 128v0c0 70.692-57.308 128-128 128v0z" />
<glyph unicode="&#xe915;" glyph-name="ico-linkedin" d="M896 64h-170.667v288c-6.724 47.026-46.729 82.778-95.085 82.778-0.322 0-0.643-0.002-0.964-0.005h0.049c-41.591-1.061-74.901-35.029-74.901-76.777 0-2.111 0.085-4.201 0.252-6.269l-0.018 0.272v-288h-170.667v512h170.667v-85.333c35.188 44.676 88.738 73.529 149.080 75.088l0.253 0.005c106.091-0.243 192-86.302 192-192.426 0 0 0 0 0 0v0-309.333zM298.667 64h-170.667v512h170.667v-512zM213.333 832c47.128 0 85.333-38.205 85.333-85.333s-38.205-85.333-85.333-85.333c-47.128 0-85.333 38.205-85.333 85.333v0c0 47.128 38.205 85.333 85.333 85.333v0z" />
<glyph unicode="&#xe916;" glyph-name="ico-configuracion" d="M829.013 405.333c1.818 12.747 2.901 27.539 2.986 42.568v0.099c-0.086 15.127-1.168 29.919-3.186 44.412l0.199-1.746 90.027 70.4c4.883 3.942 7.98 9.928 7.98 16.637 0 3.929-1.062 7.609-2.914 10.77l0.055-0.101-85.333 147.627c-3.746 6.468-10.635 10.75-18.523 10.75-2.696 0-5.275-0.5-7.65-1.413l0.146 0.049-106.24-42.667c-20.816 16.585-44.569 30.892-70.082 41.89l-2.025 0.777-16.213 113.067c-2.208 9.36-10.49 16.22-20.375 16.22-0.187 0-0.374-0.002-0.559-0.007l0.027 0.001h-170.667c-0.064 0.001-0.139 0.001-0.214 0.001-10.493 0-19.181-7.73-20.678-17.807l-0.014-0.114-16.213-113.067c-27.524-11.978-51.257-26.268-72.814-43.202l0.707 0.535-104.107 43.52c-2.28 0.929-4.924 1.468-7.695 1.468-7.859 0-14.706-4.337-18.277-10.748l-0.054-0.106-85.333-147.627c-1.878-3.074-2.99-6.794-2.99-10.774 0-6.705 3.156-12.672 8.063-16.498l0.047-0.035 87.893-69.547c-1.801-12.73-2.883-27.522-2.986-42.546l-0.001-0.121c0.104-15.145 1.186-29.936 3.186-44.434l-0.2 1.768-90.027-69.547c-4.883-3.942-7.98-9.928-7.98-16.637 0-3.929 1.062-7.609 2.914-10.77l-0.055 0.101 85.333-147.627c3.746-6.468 10.635-10.75 18.523-10.75 2.696 0 5.275 0.5 7.65 1.413l-0.146-0.049 106.24 42.667c20.816-16.585 44.569-30.892 70.082-41.89l2.025-0.777 16.213-113.067c1.875-9.78 10.362-17.070 20.552-17.070 0.125 0 0.249 0.001 0.374 0.003h170.648c0.064-0.001 0.139-0.001 0.214-0.001 10.493 0 19.181 7.73 20.678 17.807l0.014 0.114 16.213 113.067c27.524 11.978 51.257 26.268 72.814 43.202l-0.707-0.535 106.24-42.667c2.28-0.929 4.924-1.468 7.695-1.468 7.859 0 14.706 4.337 18.277 10.748l0.054 0.106 85.333 147.627c1.798 3.061 2.86 6.741 2.86 10.67 0 6.709-3.097 12.695-7.939 16.605l-0.041 0.032zM512 298.667c-82.475 0-149.333 66.859-149.333 149.333s66.859 149.333 149.333 149.333c82.475 0 149.333-66.859 149.333-149.333v0c0-82.475-66.859-149.333-149.333-149.333v0z" />
<glyph unicode="&#xe917;" glyph-name="ico-periscope" d="M512 661.333c0-47.128-38.205-85.333-85.333-85.333s-85.333 38.205-85.333 85.333v0c-26.549-35.173-42.523-79.625-42.523-127.808 0-117.821 95.513-213.333 213.333-213.333s213.333 95.513 213.333 213.333c0 117.821-95.513 213.333-213.333 213.333-18.695 0-36.829-2.405-54.109-6.922l1.485 0.33c31.081-13.212 52.48-43.485 52.48-78.756 0-0.062 0-0.125 0-0.187v0.010zM512 874.667c188.513 0 341.333-152.82 341.333-341.333v0c0.006-0.722 0.009-1.577 0.009-2.432 0-45.246-8.938-88.404-25.144-127.806l0.815 2.238c-65.707-188.587-247.467-384-317.013-384s-251.307 197.12-317.013 384c-15.391 37.164-24.329 80.322-24.329 125.568 0 0.855 0.003 1.709 0.010 2.563l-0.001-0.131c0 188.513 152.82 341.333 341.333 341.333v0z" />
<glyph unicode="&#xe918;" glyph-name="ico-telegram" d="M416.853 164.267l9.813 180.48 329.813 295.253c14.507 13.227-2.987 19.627-22.187 8.107l-404.48-256-174.933 55.893c-37.547 10.667-37.973 36.693 8.533 55.467l682.667 262.827c31.147 14.080 61.013-7.68 49.067-55.467l-117.333-546.56c-8.107-38.827-31.573-48.213-64-30.293l-176.64 130.56-85.333-82.347c-8.13-10.663-20.717-17.57-34.931-17.919l-0.056-0.001z" />
<glyph unicode="&#xe919;" glyph-name="ico-twitter" d="M958.293 725.333c-30.537-14.129-65.964-24.48-103.138-29.249l-1.822-0.191c37.795 23.024 66.17 58.316 79.847 100.249l0.366 1.297c-33.399-20.275-72.261-35.803-113.665-44.386l-2.389-0.414c-33.007 35.738-80.104 58.043-132.411 58.043-0.849 0-1.697-0.006-2.544-0.018l0.128 0.001c-100.671-0.242-182.187-81.908-182.187-182.613 0-0.15 0-0.3 0.001-0.45v0.023c-0.001-0.196-0.001-0.428-0.001-0.659 0-14.892 1.711-29.385 4.946-43.292l-0.252 1.285c-152.537 8.152-286.612 80.853-376.427 191.055l-0.746 0.945c-15.586-26.29-24.796-57.951-24.796-91.762 0-63.129 32.108-118.759 80.885-151.449l0.658-0.415c-30.515 0.356-59.118 8.213-84.152 21.807l0.952-0.473c0-0.064 0-0.14 0-0.215 0-88.254 62.46-161.92 145.586-179.205l1.187-0.206c-14.245-4.062-30.605-6.397-47.51-6.397-12.326 0-24.363 1.242-35.991 3.606l1.155-0.196c23.594-73.675 90.765-126.375 170.478-127.997l0.188-0.003c-61.372-48.93-140.055-78.511-225.647-78.511-0.621 0-1.242 0.002-1.862 0.005h0.096c-15.078 0.038-29.896 0.967-44.455 2.737l1.788-0.177c79.065-51.721 175.856-82.567 279.839-82.773h0.055c0.89-0.006 1.942-0.009 2.995-0.009 286.069 0 517.973 231.905 517.973 517.973 0 1.053-0.003 2.106-0.009 3.158l0.001-0.163c0 8.107 0 15.787 0 23.893 35.899 26.231 66.079 57.77 90.039 93.802l0.841 1.345z" />
<glyph unicode="&#xe91a;" glyph-name="ico-registro_nacimiento" d="M576 576h-512v-85.333h512v85.333zM576 746.667h-512v-85.333h512v85.333zM64 320h341.333v85.333h-341.333v-85.333zM896 512l64-64-298.667-298.667-192 192 64 64 128-128z" />
<glyph unicode="&#xe91b;" glyph-name="ico-declaracion_jurada" d="M245.76 797.867v-90.88h499.2v90.88h-499.2zM245.76 616.533v-90.88h499.2v90.88h-499.2zM245.76 434.773h159.573v-90.88h-159.573v90.88zM64 797.867v-90.88h94.293v90.88h-94.293zM64 616.533v-90.88h94.293v90.88h-94.293zM64 434.773h94.293v-90.88h-94.293v90.88zM896 544.427l64-64-298.667-298.667-192 192 64 64 128-128 234.667 234.667z" />
<glyph unicode="&#xe91c;" glyph-name="ico-listado_familiares-29" d="M707.413 386.133c63.623 0 115.2 51.577 115.2 115.2s-51.577 115.2-115.2 115.2c-63.623 0-115.2-51.577-115.2-115.2v0c-0.001-0.127-0.001-0.277-0.001-0.427 0-63.388 51.386-114.773 114.773-114.773 0.15 0 0.301 0 0.451 0.001h-0.023zM707.413 343.467c-76.8 0-229.973-38.4-229.973-115.2v-78.933h461.227v76.8c0 78.507-154.453 116.907-231.253 116.907zM64 797.867v-90.88h680.96v90.88h-680.96zM64 616.533v-90.88h413.44v90.88h-413.44zM64 434.773h413.44v-90.88h-413.44v90.88z" />
<glyph unicode="&#xe91d;" glyph-name="ico-no_2" d="M810.667 686.507l-60.16 60.16-238.507-238.507-238.507 238.507-60.16-60.16 238.507-238.507-238.507-238.507 60.16-60.16 238.507 238.507 238.507-238.507 60.16 60.16-238.507 238.507z" />
<glyph unicode="&#xe91e;" glyph-name="ico-no" d="M512 106.667c-188.513 0-341.333 152.82-341.333 341.333s152.82 341.333 341.333 341.333c188.513 0 341.333-152.82 341.333-341.333v0c0-188.513-152.82-341.333-341.333-341.333v0zM512 874.667c-235.641 0-426.667-191.025-426.667-426.667s191.025-426.667 426.667-426.667c235.641 0 426.667 191.025 426.667 426.667v0c0 235.641-191.025 426.667-426.667 426.667v0zM622.507 618.667l-110.507-110.507-110.507 110.507-60.16-60.16 110.507-110.507-110.507-110.507 60.16-60.16 110.507 110.507 110.507-110.507 60.16 60.16-110.507 110.507 110.507 110.507z" />
<glyph unicode="&#xe91f;" glyph-name="ico-si_2" d="M885.333 674.133l-512-512-234.667 234.667 60.16 59.733 174.507-174.080 451.84 451.413z" />
<glyph unicode="&#xe920;" glyph-name="ico-si" d="M512 874.667c235.641 0 426.667-191.025 426.667-426.667s-191.025-426.667-426.667-426.667c-235.641 0-426.667 191.025-426.667 426.667v0c0 235.641 191.025 426.667 426.667 426.667v0zM512 789.333c-188.513 0-341.333-152.82-341.333-341.333s152.82-341.333 341.333-341.333c188.513 0 341.333 152.82 341.333 341.333v0c0 188.513-152.82 341.333-341.333 341.333v0zM469.333 256l-192 192 60.16 60.16 131.84-131.413 238.507 238.080 60.16-60.16z" />
<glyph unicode="&#xe921;" glyph-name="ico-verificacion" d="M426.667 192l-170.667 170.667 60.16 60.16 110.507-110.080 281.173 281.173 60.16-60.587zM512 789.333c23.564 0 42.667-19.103 42.667-42.667s-19.103-42.667-42.667-42.667c-23.564 0-42.667 19.103-42.667 42.667v0c0 23.564 19.103 42.667 42.667 42.667v0zM810.667 789.333h-178.347c-18.382 49.611-65.296 84.33-120.32 84.33s-101.938-34.719-120.032-83.444l-0.288-0.886h-178.347c-47.128 0-85.333-38.205-85.333-85.333v0-597.333c0-47.128 38.205-85.333 85.333-85.333v0h597.333c47.128 0 85.333 38.205 85.333 85.333v0 597.333c0 47.128-38.205 85.333-85.333 85.333v0z" />
<glyph unicode="&#xe922;" glyph-name="ico-embarazadas" d="M384 789.333c0 47.128 38.205 85.333 85.333 85.333s85.333-38.205 85.333-85.333c0-47.128-38.205-85.333-85.333-85.333v0c-47.128 0-85.333 38.205-85.333 85.333v0zM682.667 405.333c-0.477 57.192-35.083 106.185-84.427 127.649l-0.906 0.351c0 70.692-57.308 128-128 128s-128-57.308-128-128v0-298.667h85.333v-213.333h128v213.333h128z" />
<glyph unicode="&#xe923;" glyph-name="ico-personas_discapacidad" d="M597.333 789.333c0-47.128-38.205-85.333-85.333-85.333s-85.333 38.205-85.333 85.333c0 47.128 38.205 85.333 85.333 85.333s85.333-38.205 85.333-85.333zM810.667 405.333v85.333c-68.792 0.959-130.431 30.791-173.488 77.896l-55.206 61.197c-7.545 8.022-16.623 14.504-26.78 18.992l-0.526 0.208c-12.698 7.907-28.112 12.595-44.62 12.595-2.165 0-4.312-0.081-6.436-0.239l0.283 0.017c-43.558-4.224-77.331-40.647-77.331-84.957 0-1.483 0.038-2.957 0.113-4.421l-0.008 0.205v-252.16c0-47.128 38.205-85.333 85.333-85.333v0h213.333v-213.333h85.333v234.667c0 47.128-38.205 85.333-85.333 85.333v0h-128v147.2c57.78-48.139 131.599-78.834 212.42-83.161l0.913-0.039zM547.413 192c-18.132-50.085-65.283-85.229-120.643-85.229-70.692 0-128 57.308-128 128 0 55.36 35.144 102.511 84.339 120.36l0.891 0.282v88.32c-98.045-20.565-170.612-106.314-170.612-209.012 0-117.821 95.513-213.333 213.333-213.333 102.698 0 188.447 72.567 208.767 169.222l0.244 1.39z" />
<glyph unicode="&#xe924;" glyph-name="ico-pendiente" d="M256 874.667h512v-256l-170.667-170.667 170.667-170.667v-256h-512v256l170.667 170.667-170.667 170.667v256zM682.667 256l-170.667 170.667-170.667-170.667v-149.333h341.333v149.333zM512 469.333l170.667 170.667v149.333h-341.333v-149.333l170.667-170.667zM426.667 704h170.667v-32l-85.333-85.333-85.333 85.333z" />
<glyph unicode="&#xe925;" glyph-name="ico-ajustes" d="M128 234.667v-85.333h256v85.333h-256zM128 746.667v-85.333h426.667v85.333h-426.667zM554.667 64v85.333h341.333v85.333h-341.333v85.333h-85.333v-256h85.333zM298.667 576v-85.333h-170.667v-85.333h170.667v-85.333h85.333v256h-85.333zM896 405.333v85.333h-426.667v-85.333h426.667zM640 576h85.333v85.333h170.667v85.333h-170.667v85.333h-85.333z" />
<glyph unicode="&#xe926;" glyph-name="ico-consultas" d="M725.333 533.333h-426.667v85.333h426.667zM725.333 362.667h-426.667v85.333h426.667zM597.333 192h-298.667v85.333h298.667zM512 789.333c23.564 0 42.667-19.103 42.667-42.667s-19.103-42.667-42.667-42.667c-23.564 0-42.667 19.103-42.667 42.667v0c0 23.564 19.103 42.667 42.667 42.667v0zM810.667 789.333h-178.347c-18.382 49.611-65.296 84.33-120.32 84.33s-101.938-34.719-120.032-83.444l-0.288-0.886h-178.347c-47.128 0-85.333-38.205-85.333-85.333v0-597.333c0-47.128 38.205-85.333 85.333-85.333v0h597.333c47.128 0 85.333 38.205 85.333 85.333v0 597.333c0 47.128-38.205 85.333-85.333 85.333v0z" />
<glyph unicode="&#xe927;" glyph-name="ico-consultas2" d="M554.667 576h234.667l-234.667 234.667v-234.667zM256 874.667h341.333l256-256v-512c0-47.128-38.205-85.333-85.333-85.333v0h-512c-47.128 0-85.333 38.205-85.333 85.333v0 682.667c0 47.128 38.205 85.333 85.333 85.333v0zM298.667 106.667h85.333v256h-85.333v-256zM469.333 106.667h85.333v341.333h-85.333v-341.333zM640 106.667h85.333v170.667h-85.333z" />
<glyph unicode="&#xe928;" glyph-name="ico-acta_nacimiento_no" d="M597.333 874.667h-341.333c-47.128 0-85.333-38.205-85.333-85.333v0-682.667c0-47.128 38.205-85.333 85.333-85.333v0h512c47.128 0 85.333 38.205 85.333 85.333v0 512zM768 106.667h-512v682.667h298.667v-213.333h213.333zM341.333 448v-85.333h341.333v85.333h-341.333zM341.333 277.333h241.92v-85.333h-241.92v85.333zM500.48 642.133c0-51.37-41.643-93.013-93.013-93.013s-93.013 41.643-93.013 93.013c0 51.37 41.643 93.013 93.013 93.013s93.013-41.643 93.013-93.013z" />
<glyph unicode="&#xe929;" glyph-name="ico-acta_nacimiento_si" d="M407.893 642.133c0-51.37-41.643-93.013-93.013-93.013s-93.013 41.643-93.013 93.013c0 51.37 41.643 93.013 93.013 93.013s93.013-41.643 93.013-93.013zM866.133 354.133l58.88-58.88-273.92-273.92-163.84 162.56 58.88 58.88 104.96-104.107 215.040 215.467zM248.747 448v-85.333h341.333v85.333h-341.333zM248.747 277.333h184.747v-85.333h-184.747v85.333zM433.92 106.667h-270.507v682.667h298.667v-213.333h213.333v-213.333h85.333v256l-256 256h-341.333c-47.128 0-85.333-38.205-85.333-85.333v0-682.667c0-47.128 38.205-85.333 85.333-85.333v0h270.080z" />
<glyph unicode="&#xe92a;" glyph-name="ico-hogares_patria" d="M974.933 766.72v-16.64c-0.52-7.968-2.353-15.374-5.287-22.195l0.167 0.435c-6.613-14.769-15.061-27.453-25.26-38.495l0.087 0.095c-21.454-23.719-45.546-44.421-71.986-61.852l-1.401-0.868c-0.414-0.3-0.933-0.481-1.493-0.481s-1.079 0.18-1.501 0.486l0.007-0.005c-23.81 13.22-44.333 27.349-63.375 43.196l0.655-0.53c-13.279 10.153-24.899 21.367-35.125 33.774l-0.288 0.36c-10.349 13.123-16.6 29.898-16.6 48.132 0 2.733 0.14 5.434 0.415 8.095l-0.028-0.333c2.299 32.519 29.244 58.030 62.147 58.030 14.046 0 27.006-4.649 37.425-12.491l-0.159 0.115c3.84-2.56 7.253-5.973 11.093-9.387v0c11.272 14.252 28.565 23.315 47.974 23.315 2.038 0 4.052-0.1 6.038-0.295l-0.252 0.020c26.49-2.084 48.148-20.57 54.938-45.219l0.102-0.434c0.427-0.853 1.28-3.84 1.707-6.827zM386.56 476.16c-18.709 31.537-52.58 52.347-91.311 52.347-7.245 0-14.319-0.728-21.155-2.115l0.679 0.115c-35.456-6.361-64.265-29.947-77.822-61.615l-0.258-0.678v-3.413c-7.68 3.413-14.933 7.68-22.187 10.24-11.291 4.441-24.366 7.015-38.044 7.015-58.91 0-106.667-47.756-106.667-106.667 0-6.855 0.647-13.559 1.882-20.054l-0.105 0.666c6.126-35.181 25.242-65.053 52.125-85.080l0.355-0.253c21.589-16.194 46.156-30.487 72.327-41.769l2.34-0.898c34.695-16.355 75.622-30.968 118.109-41.651l4.771-1.016c0.704-0.533 1.595-0.853 2.56-0.853s1.856 0.321 2.571 0.861l-0.011-0.008c35.537 40.223 66.519 85.79 91.336 134.998l1.677 3.668c11.386 21.762 19.761 47.052 23.733 73.78l0.16 1.314c1.029 5.772 1.617 12.417 1.617 19.2s-0.588 13.428-1.717 19.887l0.099-0.687-8.533 26.88c-3.413 6.827-5.973 11.52-8.533 15.787zM580.693 74.667c106.059 46.767 197.502 103.057 280.049 169.901l-2.289-1.794c39.933 31.427 73.748 68.364 100.904 110.037l1.069 1.75c11.958 18.491 21.234 40.020 26.609 63.048l0.271 1.378v4.267l5.547 52.907v6.4c0 8.107 0 14.080 0 19.627-6.027 44.753-26.418 83.902-56.303 113.477l-0.017 0.017c-11.52-9.387-23.893-18.773-37.973-28.16-7.411-4.597-16.4-7.322-26.027-7.322s-18.616 2.725-26.241 7.445l0.214-0.123c-26.59 14.541-49.49 30.091-70.756 47.557l0.783-0.624c-12.86 10.464-24.31 21.644-34.684 33.771l-0.303 0.362c-31.559-9.347-58.83-24.752-81.72-44.997l0.227 0.197-20.053-17.92-13.653 12.8-12.373 13.653c-6.911 8.338-13.884 15.852-21.251 22.961l-0.082 0.079c-35.852 32.914-83.861 53.087-136.581 53.087-21.46 0-42.138-3.342-61.544-9.535l1.432 0.395c-61.404-19.2-108.8-66.596-127.631-126.634l-0.369-1.366c8.28 1.579 17.803 2.482 27.538 2.482 55.194 0 103.608-29.032 130.804-72.657l0.378-0.651 5.547-10.24 2.987-5.547c0.984-1.95 1.994-4.346 2.853-6.813l0.134-0.44 8.96-26.88c1.319-4.076 2.097-8.767 2.133-13.635v-0.018c1.23-7.055 1.934-15.179 1.934-23.467s-0.703-16.412-2.054-24.315l0.12 0.848c-4.735-33.426-14.62-63.624-28.902-91.175l0.742 1.575c-10.898-22.493-21.407-41.078-32.908-58.965l1.335 2.218c57.724-61.322 120.217-116.777 187.359-166.293l3.788-2.667z" />
<glyph unicode="&#xe92b;" glyph-name="ico-lactancia_materna" d="M512 632.32c66.215 0 119.893 53.678 119.893 119.893s-53.678 119.893-119.893 119.893c-66.215 0-119.893-53.678-119.893-119.893v0c0-66.215 53.678-119.893 119.893-119.893v0zM512 381.867h-128v91.733l-95.573-97.707c-42.667-42.667-103.253 12.373-59.307 56.32l160.427 160.427c11.985 13.141 29.178 21.354 48.29 21.354 0.573 0 1.144-0.007 1.714-0.022l-0.084 0.002h143.787c0.532 0.015 1.159 0.024 1.788 0.024 19.462 0 37.010-8.195 49.381-21.323l0.032-0.034 162.133-162.133c12.878-7.506 21.395-21.251 21.395-36.986 0-23.564-19.103-42.667-42.667-42.667-16.509 0-30.828 9.376-37.923 23.094l-0.112 0.238-99.413 99.413v-91.733h-125.867zM637.013 334.507l-95.147-95.147 69.973-69.547-71.68-71.68c-11.129-7.809-18.315-20.583-18.315-35.035 0-23.564 19.103-42.667 42.667-42.667 14.668 0 27.607 7.402 35.286 18.674l0.095 0.148 113.067 117.76c13.378 12.969 21.681 31.106 21.681 51.183 0 17.43-6.259 33.399-16.651 45.781l0.090-0.11zM384 334.507l95.147-95.147-68.693-69.547 71.68-71.68c11.129-7.809 18.315-20.583 18.315-35.035 0-23.564-19.103-42.667-42.667-42.667-14.668 0-27.607 7.402-35.286 18.674l-0.095 0.148-113.067 117.76c-13.378 12.969-21.681 31.106-21.681 51.183 0 17.43 6.259 33.399 16.651 45.781l-0.090-0.11z" />
<glyph unicode="&#xe92c;" glyph-name="ico-organizacion" d="M411.733 807.253c0.243 54.956 44.849 99.412 99.839 99.412 55.14 0 99.84-44.7 99.84-99.84 0-54.99-44.456-99.596-99.389-99.839h-0.023c-0.127-0.001-0.277-0.001-0.428-0.001-55.14 0-99.84 44.7-99.84 99.84 0 0.15 0 0.301 0.001 0.451v-0.023zM512 668.16c-66.56 0-200.107-33.28-200.107-100.267v-66.56h400.213v66.56c0 66.56-133.547 100.267-200.107 100.267zM796.16 194.987c55.376 0 100.267 44.891 100.267 100.267s-44.891 100.267-100.267 100.267c-55.376 0-100.267-44.891-100.267-100.267v0c-0.002-0.254-0.004-0.554-0.004-0.854 0-55.14 44.7-99.84 99.84-99.84 0.151 0 0.303 0 0.454 0.001h-0.023zM796.16 155.733c-66.56 0-200.107-33.28-200.107-100.267v-66.56h400.213v66.56c0.427 66.56-133.12 99.84-200.107 99.84zM227.84 194.56c0.127-0.001 0.277-0.001 0.427-0.001 55.376 0 100.267 44.891 100.267 100.267s-44.891 100.267-100.267 100.267c-55.375 0-100.266-44.89-100.267-100.266v0c-0.001-0.127-0.001-0.277-0.001-0.427 0-55.14 44.7-99.84 99.84-99.84 0 0 0.001 0 0.001 0v0zM227.84 155.307c-66.56 0-200.107-33.28-200.107-100.267v-66.56h398.933v66.987c0 66.56-132.267 99.84-198.827 99.84z" />
<glyph unicode="&#xe92d;" glyph-name="ico-somos_venezuela" d="M266.24 152.32c-0.555-0.003-1.212-0.004-1.869-0.004-50.722 0-99.362 8.913-144.44 25.259l2.949-0.934c-46.516 16.7-86.447 41.387-120.102 72.725l0.208-0.192 85.333 107.093c48.425-42.629 112.178-68.868 182.046-69.546l0.141-0.001c1.688-0.112 3.659-0.176 5.645-0.176 15.413 0 29.926 3.855 42.626 10.653l-0.485-0.237c10.015 5.756 16.651 16.393 16.651 28.58 0 0.302-0.004 0.604-0.012 0.904l0.001-0.044c0.010 0.294 0.015 0.639 0.015 0.986 0 5.58-1.428 10.826-3.939 15.393l0.084-0.166c-3.844 5.678-8.856 10.281-14.716 13.542l-0.217 0.111c-8.286 4.857-17.884 9.193-27.949 12.497l-1.065 0.303c-12.016 4.194-27.735 8.602-43.761 12.201l-3.172 0.599q-44.8 10.667-85.333 23.467c-25.543 8.362-47.739 19.659-67.778 33.81l0.791-0.53c-17.699 13.845-31.958 31.244-41.853 51.19l-0.387 0.863c-10.284 20.159-16.31 43.967-16.31 69.183 0 1.928 0.035 3.849 0.105 5.76l-0.008-0.276c-0.090 2.147-0.141 4.666-0.141 7.198 0 24.777 4.911 48.406 13.814 69.968l-0.446-1.219c10.113 23.263 24.567 42.913 42.488 58.725l0.179 0.155c19.344 16.558 42.216 29.656 67.265 37.988l1.428 0.412c25.88 8.678 55.681 13.685 86.652 13.685 1.487 0 2.971-0.012 4.452-0.035l-0.224 0.003c1.602 0.024 3.493 0.037 5.387 0.037 43.846 0 86.010-7.197 125.377-20.473l-2.765 0.809c39.388-13.793 73.4-33.507 102.876-58.419l-0.476 0.392-75.093-113.493c-22.706 17.054-48.789 31.454-76.776 41.957l-2.157 0.71c-23.268 9.056-50.188 14.497-78.323 14.931l-0.184 0.002c-1.662 0.143-3.596 0.225-5.549 0.225-13.787 0-26.625-4.062-37.383-11.053l0.266 0.162c-8.475-5.871-13.981-15.509-14.080-26.438v-0.015c-0.013-0.344-0.020-0.749-0.020-1.155 0-6.005 1.59-11.638 4.373-16.502l-0.086 0.163c3.955-5.718 9.113-10.33 15.13-13.541l0.23-0.112c8.481-4.652 18.374-8.853 28.703-12.062l1.164-0.311q18.773-6.4 47.787-12.8c33.769-7.615 62.295-16.27 89.949-26.701l-4.615 1.527c25.251-9.059 47.123-20.887 66.827-35.477l-0.693 0.49c17.887-13.036 32.297-29.766 42.3-49.14l0.366-0.78c9.19-19.36 14.556-42.065 14.556-66.024 0-1.389-0.018-2.773-0.054-4.153l0.004 0.204c0.015-0.881 0.024-1.92 0.024-2.961 0-27.706-6.141-53.977-17.137-77.527l0.473 1.128c-11.208-23.547-26.765-43.336-45.794-59.077l-0.286-0.23c-20.13-16.258-43.891-28.975-69.791-36.743l-1.462-0.377c-27.164-9.69-58.532-15.843-91.163-17.050l-0.57-0.017zM882.347 522.24c-0.013 0-0.029 0-0.045 0-17.432 0-32.539-9.956-39.944-24.493l-0.118-0.254-44.8-95.147c-3.021-5.705-4.795-12.471-4.795-19.652 0-4.877 0.818-9.563 2.325-13.928l-0.090 0.3c3.648-11.841 11.98-21.287 22.778-26.343l0.262-0.11c5.803-2.904 12.644-4.604 19.881-4.604 17.47 0 32.627 9.905 40.16 24.406l0.119 0.251 44.8 95.147c3.021 5.705 4.795 12.471 4.795 19.652 0 4.877-0.818 9.563-2.325 13.928l0.090-0.3c-3.648 11.841-11.98 21.287-22.778 26.343l-0.262 0.11c-5.848 2.958-12.748 4.692-20.053 4.693v0zM872.107 767.147v0c-5.75 2.428-12.436 3.839-19.451 3.839-21.032 0-39.102-12.681-46.981-30.815l-0.128-0.331-98.987-238.507c-2.309-6.874-8.693-11.738-16.213-11.738s-13.904 4.864-16.178 11.617l-0.035 0.12-42.24 245.333c-3.722 24.694-24.794 43.408-50.236 43.408-3.054 0-6.045-0.27-8.951-0.786l0.307 0.045c-24.625-3.561-43.334-24.524-43.334-49.856 0-2.886 0.243-5.714 0.709-8.467l-0.042 0.296 46.080-266.667c0.701-9.793 8.818-17.473 18.728-17.473 1.376 0 2.717 0.148 4.009 0.429l-0.124-0.023 148.907 21.76c2.621 0.704 5.631 1.108 8.735 1.108 9.356 0 17.855-3.673 24.132-9.655l-0.014 0.013c7.68-8.533 14.080-5.547 17.067 0l101.12 240.213c2.622 5.869 4.149 12.719 4.149 19.926 0 20.758-12.67 38.558-30.699 46.085l-0.33 0.122zM1000.107 449.707c-5.936 3.064-12.956 4.86-20.396 4.86-17.403 0-32.51-9.829-40.072-24.239l-0.119-0.248-46.507-94.72c-3.427-6.006-5.448-13.198-5.448-20.862 0-17.189 10.164-32.003 24.81-38.762l0.265-0.11c5.936-3.064 12.956-4.86 20.396-4.86 17.403 0 32.51 9.829 40.072 24.239l0.119 0.248 46.507 94.72c3.427 6.006 5.448 13.198 5.448 20.862 0 17.189-10.164 32.003-24.81 38.762l-0.265 0.11zM705.28 429.227v0l-14.933-2.56-87.893-13.653c-17.602-2.309-32.669-11.623-42.546-25.002l-0.121-0.172c-7.559-10.141-12.103-22.918-12.103-36.756 0-2.988 0.212-5.926 0.621-8.8l-0.038 0.33c0-5.973 19.2-128 26.027-174.507 4.967-35.17 34.865-61.928 71.013-61.928 2.941 0 5.841 0.177 8.69 0.521l-0.343-0.034 55.467 8.96c19.806 2.865 36.676 13.567 47.643 28.803l0.144 0.21c7.653 11.056 12.226 24.752 12.226 39.516 0 4.432-0.412 8.768-1.2 12.971l0.068-0.434-2.987 20.907-7.68 40.107c-8.961 30.609-36.783 52.586-69.736 52.586-3.091 0-6.137-0.193-9.126-0.569l0.356 0.036c-0.131-0.008-0.283-0.012-0.437-0.012-4.331 0-7.869 3.397-8.095 7.672l-0.001 0.020c-0.013 0.178-0.021 0.386-0.021 0.595 0 4.116 2.914 7.552 6.792 8.356l0.055 0.010 19.2 3.84 18.773 3.84c32.98 7.466 57.235 36.523 57.235 71.245 0 1.053-0.022 2.101-0.067 3.144l0.005-0.149c0 11.947-2.987 20.053-8.107 24.32-4.231 2.55-9.339 4.059-14.8 4.059-2.782 0-5.472-0.391-8.018-1.122l0.205 0.050zM898.987 248.32c-22.127 9.429-38.273 29.103-42.601 52.898l-0.066 0.435s0 2.56 0 2.56c-1.978-0.139-4.287-0.217-6.614-0.217-19.673 0-38.029 5.642-53.537 15.396l0.418-0.245-16.213 11.52c-2.15 1.959-4.965 3.22-8.069 3.411l-0.037 0.002c-0.766 0.237-1.647 0.373-2.56 0.373s-1.794-0.136-2.623-0.39l0.063 0.017-11.52-8.107c-1.933-1.595-3.309-3.806-3.828-6.328l-0.012-0.072c0-0.018 0-0.040 0-0.061 0-2.33 0.983-4.43 2.556-5.908l0.004-0.004c6.116-6.649 11.866-13.889 17.071-21.53l0.422-0.656c5.389-7.689 9.635-16.648 12.236-26.283l0.137-0.597 11.947-67.84c2.613-15.409 10.305-28.682 21.262-38.338l0.072-0.062c5.697-3.819 12.708-6.094 20.251-6.094 3.577 0 7.034 0.512 10.302 1.466l-0.259-0.065c49.493 11.093 96.427 19.2 96.853 19.2 18.689 3.314 34.679 13.027 45.975 26.748l0.105 0.132c5.098 7.741 8.132 17.234 8.132 27.436 0 4.040-0.476 7.969-1.375 11.733l0.069-0.343v6.4c-1.221 8.595-3.010 16.231-5.396 23.597l0.276-0.984-3.413-3.413c-14.34-14.639-34.312-23.714-56.403-23.714-12.545 0-24.406 2.926-34.938 8.134l0.461-0.206z" />
<glyph unicode="&#xe92e;" glyph-name="ico-vehiculos" d="M833.707 727.467c0.848-0.136 1.826-0.213 2.822-0.213 10.368 0 18.773 8.405 18.773 18.773s-8.405 18.773-18.773 18.773c-0.996 0-1.974-0.078-2.928-0.227l0.106 0.014h-256c-0.848 0.136-1.826 0.213-2.822 0.213-10.368 0-18.773-8.405-18.773-18.773s8.405-18.773 18.773-18.773c0.996 0 1.974 0.078 2.928 0.227l-0.106-0.014h256zM919.040 267.093c23.564 0 42.667 19.103 42.667 42.667s-19.103 42.667-42.667 42.667v0c-23.564 0-42.667-19.103-42.667-42.667s19.103-42.667 42.667-42.667v0zM702.72 689.92h-190.72c-26.453 0-33.28-13.227-36.693-33.28l-11.52-82.773c-7.549 3.331-16.317 5.869-25.479 7.189l-0.547 0.065c-2.745 0.21-5.945 0.329-9.173 0.329s-6.428-0.119-9.596-0.354l0.423 0.025h-10.24l17.067 128c8.107 42.667 34.987 57.6 75.093 74.24 60.811 21.31 130.971 34.445 203.944 36.25l0.856 0.017c73.677-1.811 143.691-14.947 209.192-37.725l-4.819 1.458c40.533-16.64 66.987-32.853 75.52-74.24l29.867-228.267v-314.88h-51.627v-49.493c0-24.742-20.058-44.8-44.8-44.8s-44.8 20.058-44.8 44.8v0 52.053h-256v151.467c0 0.116 0.001 0.254 0.001 0.392 0 41.41-24.581 77.079-59.947 93.213l-0.64 0.262-17.92 45.227h398.507c22.613 0 27.307 15.787 25.173 31.573l-25.173 165.973c-2.987 20.053-9.813 33.28-36.267 33.28zM58.453 301.227c0.241-21.73 17.913-39.253 39.678-39.253 21.915 0 39.68 17.765 39.68 39.68s-17.764 39.679-39.678 39.68v0c-21.966-0.241-39.68-18.104-39.68-40.104 0-0.001 0-0.002 0-0.002v0zM294.827 386.56h186.027l-35.413 92.16c-4.267 13.227-11.093 22.613-26.453 22.613h-248.32c-15.787 0-22.187-9.387-26.88-22.613l-35.413-92.16h186.453zM482.56 502.613l47.36-119.040c29.628-6.501 51.497-32.465 51.627-63.559v-151.481h-45.653v-48.64c0-23.564-19.103-42.667-42.667-42.667s-42.667 19.103-42.667 42.667v0 48.64h-310.613v-48.64c0-23.564-19.103-42.667-42.667-42.667s-42.667 19.103-42.667 42.667v0 48.64h-46.507v151.467c-0.004 0.278-0.007 0.606-0.007 0.935 0 31.137 21.943 57.148 51.208 63.415l0.426 0.076 46.933 119.040c8.994 24.897 32.423 42.37 59.933 42.37 1.431 0 2.851-0.047 4.258-0.14l-0.191 0.010h260.267c24.286-2.919 44.050-19.54 51.5-41.803l0.127-0.437zM531.2 300.373c0 22.15-17.956 40.107-40.107 40.107s-40.107-17.956-40.107-40.107c0-22.15 17.956-40.107 40.107-40.107v0c0.003 0 0.006 0 0.009 0 22.15 0 40.107 17.956 40.107 40.107 0 0.3-0.003 0.599-0.010 0.898l0.001-0.044z" />
<glyph unicode="&#xe92f;" glyph-name="ico-noticias" d="M853.333 490.667h-682.667v128h682.667zM853.333 320h-298.667v85.333h298.667zM853.333 149.333h-298.667v85.333h298.667zM469.333 149.333h-298.667v256h298.667zM867.413 760.747l-70.827 71.253-71.253-71.253-71.253 71.253-70.827-71.253-71.253 71.253-71.253-71.253-70.827 71.253-71.253-71.253-71.253 71.253-70.827-71.253-71.253 71.253v-682.667c0-47.128 38.205-85.333 85.333-85.333v0h682.667c47.128 0 85.333 38.205 85.333 85.333v0 682.667z" />
<glyph unicode="&#xe930;" glyph-name="ico-clientes" d="M512 725.333c-70.692 0-128-57.308-128-128s57.308-128 128-128c70.692 0 128 57.308 128 128v0c0 70.692-57.308 128-128 128v0zM256 632.747c-0.098 0-0.213 0.001-0.329 0.001-58.91 0-106.667-47.756-106.667-106.667s47.756-106.667 106.667-106.667c37.338 0 70.196 19.185 89.253 48.235l0.249 0.405c-28.633 34.977-46.118 80.050-46.506 129.194l-0.001 0.086c-0.409 3.838-0.642 8.292-0.642 12.8s0.233 8.961 0.688 13.349l-0.046-0.549c-12.492 6.004-27.134 9.6-42.593 9.813l-0.073 0.001zM768 632.747c-15.533-0.214-30.174-3.81-43.292-10.082l0.625 0.269c0.409-3.838 0.642-8.292 0.642-12.8s-0.233-8.961-0.688-13.349l0.046 0.549c-0.7-48.775-18.133-93.347-46.799-128.368l0.292 0.368c19.185-30.179 52.446-49.914 90.316-49.914 58.91 0 106.667 47.756 106.667 106.667s-47.756 106.667-106.667 106.667c-0.402 0-0.803-0.002-1.203-0.007l0.061 0.001zM512 384c-85.333 0-256-42.667-256-128v-85.333h512v85.333c0 85.333-170.667 128-256 128zM199.253 341.333c-71.253-11.093-156.587-44.373-156.587-99.413v-71.253h128v85.333c0.914 32.106 11.489 61.573 28.901 85.793l-0.315-0.46zM824.747 341.333c17.098-23.76 27.672-53.227 28.582-85.114l0.005-0.219v-85.333h128v71.253c0 55.040-85.333 88.32-156.587 100.693z" />
<glyph unicode="&#xe931;" glyph-name="ico-federaciones" d="M640 448c-47.128 0-85.333-38.205-85.333-85.333s38.205-85.333 85.333-85.333c47.128 0 85.333 38.205 85.333 85.333v0c0 47.128-38.205 85.333-85.333 85.333v0zM512 106.667c-188.513 0-341.333 152.82-341.333 341.333s152.82 341.333 341.333 341.333c188.513 0 341.333-152.82 341.333-341.333v0c0-188.513-152.82-341.333-341.333-341.333v0zM512 874.667c-235.641 0-426.667-191.025-426.667-426.667s191.025-426.667 426.667-426.667c235.641 0 426.667 191.025 426.667 426.667v0c0 235.641-191.025 426.667-426.667 426.667v0zM597.333 576c0 47.128-38.205 85.333-85.333 85.333s-85.333-38.205-85.333-85.333c0-47.128 38.205-85.333 85.333-85.333v0c47.128 0 85.333 38.205 85.333 85.333v0zM384 448c-47.128 0-85.333-38.205-85.333-85.333s38.205-85.333 85.333-85.333c47.128 0 85.333 38.205 85.333 85.333v0c0 47.128-38.205 85.333-85.333 85.333v0z" />
<glyph unicode="&#xe932;" glyph-name="ico-ivss" d="M955.733 610.987c-58.867 153.178-190.579 266.384-351.548 298.171l-3.012 0.496c-28.117 5.986-60.422 9.414-93.528 9.414-69.842 0-136.121-15.255-195.686-42.616l2.921 1.202c-69.651-32.183-127.752-78.801-172.451-136.348l-0.776-1.039c-16.321-20.761-31.601-44.079-44.813-68.673l-1.267-2.58c-35.22-64.273-55.936-140.821-55.936-222.209 0-168.281 88.566-315.877 221.628-398.718l1.988-1.154v145.067h35.413c0-3.84 0-8.107 0-12.373 5.973-51.627 11.947-103.68 18.347-155.307 0-4.267 0-10.24 0-10.24 16.213-7.253 37.12-14.933 55.467-21.76 0 9.387 0 15.787 0 22.187 0 97.28 0 206.933 0 304.213l11.52 6.4c33.999 19.62 61.657 46.732 81.355 79.209l0.565 1.004c0 2.56 5.547 9.387 8.107 13.653 0-7.253-21.76-213.333-32.427-315.307h48.64c0-29.44 0-70.4 0-99.84 0-8.96 0-17.92 0-26.453h55.040l4.267 125.867h69.12l-39.68 302.080c36.672 1.52 69.313 17.605 92.51 42.583l0.077 0.084c1.129 1.678 2.264 3.634 3.274 5.664l0.14 0.31v-450.56c13.227 5.547 32.853 13.653 42.667 19.2v8.96c6.827 63.573 12.8 128 19.2 191.573l8.533 85.333 60.587-229.973c109.286 87.197 178.702 220.372 178.702 369.76 0 58.411-10.613 114.343-30.015 165.974l1.072-3.254zM905.387 302.933c-15.201-41.61-35.398-77.613-60.4-109.688l0.666 0.888c-12.799 107.277-20.102 231.52-20.102 357.469 0 6.179 0.018 12.354 0.053 18.525l-0.004-0.953h-185.6s0-10.24 0-14.507c-1.54-8.646-4.21-16.376-7.895-23.497l0.215 0.457c-15.11-33.762-48.409-56.859-87.103-56.859-1.629 0-3.248 0.041-4.856 0.122l0.226-0.009c-31.147 0-104.107 0-104.107 0-4.044-14.703-9.138-27.456-15.446-39.472l0.513 1.072c-22.56-45.802-68.908-76.76-122.487-76.76-16.995 0-33.262 3.115-48.262 8.805l0.936-0.312c-34.589 15.494-62.020 41.823-78.514 74.601l-0.419 0.919-5.973 10.24h-59.307c16.475-55.203 52.793-100.125 100.487-127.441l1.059-0.559 9.813-5.12c0-26.453 0-64.853 0-90.88-3.708-26.532-8.331-49.36-14.179-71.693l0.952 4.28-5.12 3.84-7.68 8.533c-38.48 45.695-67.886 100.398-84.613 160.388l-0.72 3.026q-3.84 14.933-6.827 29.867c-4.579 23.654-7.199 50.857-7.199 78.672 0 13.31 0.6 26.48 1.774 39.484l-0.122-1.676q0 21.333 5.547 42.667c26.629 133.64 113.48 242.686 230.446 299.276l2.514 1.097c52.23 25.355 113.611 40.175 178.454 40.175 40.532 0 79.711-5.791 116.756-16.59l-2.943 0.735c29.546-8.162 55.192-18.494 79.319-31.307l-2.093 1.014c92.325-48.296 163.141-127.129 199.986-222.829l0.974-2.878c17.275-44.006 27.287-94.965 27.287-148.262 0-52.019-9.538-101.81-26.961-147.72l0.954 2.862zM365.653 477.44c-0.245-35.631-29.186-64.421-64.852-64.421-35.818 0-64.853 29.036-64.853 64.853s29.036 64.853 64.853 64.853c0.3 0 0.599-0.002 0.897-0.006h-0.045c35.449-0.48 64.001-29.33 64.001-64.848 0-0.152-0.001-0.304-0.002-0.456v0.023zM584.96 578.987c-0.725-35.257-29.477-63.561-64.84-63.561-35.818 0-64.853 29.036-64.853 64.853s29.036 64.853 64.853 64.853c0.446 0 0.89-0.004 1.334-0.013l-0.066 0.001c35.317-0.945 63.586-29.8 63.586-65.258 0-0.458-0.005-0.914-0.014-1.37l0.001 0.068zM790.187 661.333c0.001-0.127 0.001-0.277 0.001-0.427 0-35.818-29.036-64.853-64.853-64.853s-64.853 29.036-64.853 64.853c0 35.817 29.035 64.853 64.852 64.853v0c0.127 0.001 0.277 0.001 0.427 0.001 35.582 0 64.427-28.845 64.427-64.427 0-0.001 0-0.001 0-0.002v0z" />
<glyph unicode="&#xe933;" glyph-name="ico-laboral" d="M853.333 682.667h-170.667v85.333c0 47.128-38.205 85.333-85.333 85.333v0h-170.667c-47.128 0-85.333-38.205-85.333-85.333v0-85.333h-170.667c-47.128 0-85.333-38.205-85.333-85.333v0-469.333c0-47.128 38.205-85.333 85.333-85.333v0h682.667c47.128 0 85.333 38.205 85.333 85.333v0 469.333c0 47.128-38.205 85.333-85.333 85.333v0zM597.333 768v-85.333h-170.667v85.333z" />
<glyph unicode="&#xe934;" glyph-name="ico-nomina" d="M128 21.333l64 64 64-64 64 64 64-64 64 64 64-64 64 64 64-64 64 64 64-64 64 64 64-64v853.333l-64-64-64 64-64-64-64 64-64-64-64 64-64-64-64 64-64-64-64 64-64-64-64 64zM768 576h-512v85.333h512zM768 405.333h-512v85.333h512zM768 234.667h-512v85.333h512z" />
<glyph unicode="&#xe935;" glyph-name="ico-procesar_nomina" d="M462.933 201.813c-0.295 4.909-0.463 10.648-0.463 16.427s0.168 11.518 0.499 17.214l-0.037-0.787h-275.627v85.333h301.227c14.982 33.035 34.626 61.283 58.475 85.356l-0.022-0.022h-359.68v85.333h564.053c26.895-0.063 52.892-3.797 77.551-10.728l-2.031 0.488v394.24l-64-64-63.573 64-64-64-64 64-64-64-64 64-64-64-64 64-64-64-64 64-64-64-64 64v-853.333l64 64 64-64 64 64 64-64 64 64 64-64 50.773 50.773c-19.579 37.732-31.085 82.368-31.147 129.687v0.020zM187.307 661.333h512v-85.333h-512zM912.64 180.48c0.964 6.41 1.514 13.807 1.514 21.333s-0.55 14.923-1.613 22.154l0.099-0.821 46.080 36.267c2.471 2.050 4.033 5.121 4.033 8.556 0 2.033-0.547 3.938-1.501 5.576l0.028-0.053-42.667 75.947c-1.979 3.225-5.485 5.343-9.487 5.343-1.341 0-2.627-0.238-3.817-0.674l0.077 0.025-52.053-21.76c-10.711 8.307-22.945 15.47-36.060 20.941l-1.060 0.392-8.533 58.027c-0.661 5.315-5.15 9.387-10.59 9.387-0.027 0-0.054 0-0.081 0h-89.169c-0.023 0-0.050 0-0.077 0-5.44 0-9.929-4.072-10.584-9.335l-0.005-0.052-8.533-58.027c-14.171-5.994-26.392-13.146-37.537-21.638l0.417 0.305-54.187 22.187c-1.163 0.474-2.513 0.749-3.927 0.749-3.972 0-7.436-2.171-9.272-5.39l-0.028-0.052-42.667-75.947c-1.006-1.598-1.604-3.542-1.604-5.625 0-3.432 1.621-6.486 4.139-8.437l0.024-0.018 46.080-36.267c-0.964-6.41-1.514-13.807-1.514-21.333s0.55-14.923 1.613-22.154l-0.099 0.821-46.080-36.267c-2.471-2.050-4.033-5.121-4.033-8.556 0-2.033 0.547-3.938 1.501-5.576l-0.028 0.053 42.667-75.947c1.979-3.225 5.485-5.343 9.487-5.343 1.341 0 2.627 0.238 3.817 0.674l-0.077-0.025 54.613 21.76c10.711-8.307 22.945-15.47 36.060-20.941l1.060-0.392 8.533-58.027c0.661-5.315 5.15-9.387 10.59-9.387 0.027 0 0.054 0 0.081 0h87.889c0.023 0 0.050 0 0.077 0 5.44 0 9.929 4.072 10.584 9.335l0.005 0.052 8.533 58.027c14.171 5.994 26.392 13.146 37.537 21.638l-0.417-0.305 54.613-21.76c1.163-0.474 2.513-0.749 3.927-0.749 3.972 0 7.436 2.171 9.272 5.39l0.028 0.052 42.667 75.947c0.926 1.586 1.473 3.491 1.473 5.524 0 3.436-1.562 6.507-4.015 8.542l-0.018 0.015zM749.653 125.013c-42.415 0-76.8 34.385-76.8 76.8s34.385 76.8 76.8 76.8c42.415 0 76.8-34.385 76.8-76.8v0c-0.228-41.641-33.561-75.422-75.005-76.372l-0.089-0.002z" />
<glyph unicode="&#xe936;" glyph-name="ico-resumen" d="M554.667 576h234.667l-234.667 234.667v-234.667zM256 874.667h341.333l256-256v-512c0-47.128-38.205-85.333-85.333-85.333v0h-512c-47.128 0-85.333 38.205-85.333 85.333v0 682.667c0 47.128 38.205 85.333 85.333 85.333v0zM640 192v85.333h-384v-85.333h384zM768 362.667v85.333h-512v-85.333z" />
<glyph unicode="&#xe937;" glyph-name="ico-resumen2" d="M426.667 192h-170.667v85.333h170.667v-85.333zM426.667 362.667h-170.667v85.333h170.667v-85.333zM426.667 917.333v-42.667h-170.667c-47.128 0-85.333-38.205-85.333-85.333v0-682.667c0-47.128 38.205-85.333 85.333-85.333v0h170.667v-42.667h85.333v938.667h-85.333zM853.333 618.667v-512c0-47.128-38.205-85.333-85.333-85.333v0h-170.667v85.333h170.667v384h-170.667v85.333h192l-192 192v106.667l256-256zM682.667 362.667h-85.333v85.333h85.333v-85.333zM682.667 192h-85.333v85.333h85.333z" />
<glyph unicode="&#xe938;" glyph-name="ico-encuesta_productos" d="M938.667 597.76h-204.373l-186.88 279.893c-7.831 10.905-20.476 17.925-34.761 17.925-0.23 0-0.459-0.002-0.687-0.005h0.035c-0.106 0.001-0.23 0.001-0.355 0.001-14.466 0-27.251-7.2-34.967-18.211l-0.091-0.137-186.88-279.467h-204.373c-23.564 0-42.667-19.103-42.667-42.667v0c-0.293-1.732-0.46-3.726-0.46-5.76s0.167-4.028 0.489-5.971l-0.029 0.211 110.080-479.573c9.91-36.691 42.77-63.293 81.888-63.573h554.699c39.324 0.079 72.399 26.745 82.209 62.976l0.138 0.598 109.653 479.573v11.52c0 23.564-19.103 42.667-42.667 42.667v0zM512 785.493l128-187.733h-256zM512 96.853c-117.821 0-213.333 95.513-213.333 213.333s95.513 213.333 213.333 213.333c117.821 0 213.333-95.513 213.333-213.333v0c0-117.821-95.513-213.333-213.333-213.333v0zM672.853 363.093l-52.907 52.48-141.227-138.24-62.293 61.867-52.907-52.48 115.2-115.2 194.133 191.573z" />
<glyph unicode="&#xe939;" glyph-name="ico-reportar_precios" d="M913.92 267.093l-52.907 52.48-141.227-138.24-62.293 61.867-52.907-52.48 115.2-115.2 194.133 191.573zM110.507 465.92c-15.55-15.46-25.173-36.866-25.173-60.519 0-0.024 0-0.048 0-0.071v0.004c0.102-23.523 9.706-44.783 25.169-60.156l298.671-298.671c15.377-15.467 36.637-25.071 60.14-25.173h0.020c23.735 0.102 45.168 9.878 60.573 25.586l0.013 0.014 17.067 17.067c-21.982 36.465-34.987 80.493-34.987 127.559 0 0.155 0 0.31 0 0.465v-0.024c0 141.385 114.615 256 256 256v0c0.482 0.003 1.051 0.005 1.621 0.005 46.618 0 90.236-12.846 127.507-35.192l-1.127 0.627 17.493 17.067c15.467 15.377 25.071 36.637 25.173 60.14v298.687c0 47.128-38.205 85.333-85.333 85.333v0h-298.667c-0.020 0-0.044 0-0.068 0-23.441 0-44.675-9.452-60.097-24.752l-383.994-383.994zM789.333 661.333c-35.346 0-64 28.654-64 64s28.654 64 64 64c35.346 0 64-28.654 64-64v0c0-35.346-28.654-64-64-64v0z" />
<glyph unicode="&#xe93a;" glyph-name="ico-no_verificado" d="M512 874.667c235.641 0 426.667-191.025 426.667-426.667s-191.025-426.667-426.667-426.667c-235.641 0-426.667 191.025-426.667 426.667v0c0 235.641 191.025 426.667 426.667 426.667v0zM512 789.333c-188.513 0-341.333-152.82-341.333-341.333s152.82-341.333 341.333-341.333c188.513 0 341.333 152.82 341.333 341.333v0c0 188.513-152.82 341.333-341.333 341.333v0z" />
<glyph unicode="&#xe93b;" glyph-name="ico-verificado" d="M512 874.667c-235.641 0-426.667-191.025-426.667-426.667s191.025-426.667 426.667-426.667c235.641 0 426.667 191.025 426.667 426.667v0c0 235.641-191.025 426.667-426.667 426.667v0zM426.667 234.667l-213.333 213.333 60.16 60.16 153.173-152.747 323.84 323.84 60.16-60.587z" />
<glyph unicode="&#xe93c;" glyph-name="ico-plan_ahorro" d="M938.667 634.027v4.693c0.369 2.725 0.58 5.875 0.58 9.073 0 22.77-10.681 43.046-27.305 56.090l-0.155 0.117c-6.23 5.194-14.321 8.348-23.147 8.348-17.088 0-31.416-11.818-35.255-27.727l-0.050-0.248c-1.373-4.964-2.162-10.664-2.162-16.548 0-11.811 3.178-22.88 8.726-32.398l-0.165 0.306c7.29-13.146 18.481-23.374 31.995-29.272l0.432-0.168c-9.599-9.726-22.927-15.75-37.663-15.75-4.041 0-7.976 0.453-11.758 1.311l0.354-0.068c-3.591 8.826-7.168 16.122-11.17 23.145l0.503-0.958c-33.178 57.083-81.983 101.907-140.564 129.317l-1.943 0.816c-60.398 28.641-131.228 45.365-205.964 45.365-4.091 0-8.171-0.050-12.238-0.15l0.603 0.012c-71.413-3.879-138.366-17.479-201.352-39.523l5.085 1.55s-35.413 5.12-42.667 5.973c-10.037 1.087-21.678 1.707-33.465 1.707-46.317 0-90.399-9.572-130.375-26.847l2.132 0.82c-17.92-7.253-21.76-14.507-12.373-30.72 8.758-16.215 18.671-30.211 30.044-42.867l-0.177 0.201c11.824-11.699 24.492-22.609 37.882-32.606l0.944-0.674c-12.165-22.899-24.808-51.031-35.771-79.988l-1.776-5.345c-5.147-35.291-31.277-63.29-65.131-71.141l-0.576-0.112c-19.627-4.267-26.027-14.507-24.32-34.987 0.398-7.681 1.312-14.856 2.719-21.854l-0.159 0.947c17.493-80.213 46.507-117.333 117.76-120.747 7.253-2.028 13.215-6.603 16.995-12.677l0.071-0.123c20.151-29.639 45.315-54.258 74.506-73.197l1.014-0.617c8.026-3.965 13.45-12.094 13.45-21.49 0-1.149-0.081-2.278-0.238-3.384l0.015 0.127c0-24.32-2.56-49.067-3.84-75.52h136.533l16.213 47.36c2.987 10.667 9.813 13.227 20.907 12.8h144.64c0.026 0 0.057 0 0.088 0 5.184 0 9.387-4.203 9.387-9.387 0-0.452-0.032-0.896-0.094-1.33l0.006 0.050c0-17.067-2.56-33.28-3.84-50.347h125.44l11.947 14.507c35.84 42.667 72.533 85.333 105.387 132.693 47.585 61.041 76.534 138.647 77.226 222.989l0.001 0.158c0.008 0.754 0.012 1.645 0.012 2.538 0 26.145-3.744 51.415-10.726 75.303l0.474-1.894c31.518 0.437 58.507 19.38 70.627 46.436l0.199 0.497c52.426 7.338 92.419 51.603 93.013 105.325l0.001 0.062c0 5.12-3.84 5.973-6.4 0s-29.44-64.853-75.093-69.973zM172.8 451.84c-23.564 0-42.667 19.103-42.667 42.667v0c0 23.564 19.103 42.667 42.667 42.667v0c23.842-0.407 43.207-19.030 44.792-42.527l0.008-0.14c-1.386-23.73-20.873-42.473-44.781-42.667h-0.019zM628.907 645.973c-42.072 19.014-91.216 30.093-142.948 30.093-55.683 0-108.368-12.836-155.258-35.711l2.099 0.924-22.613 48.213c51.37 25.283 111.819 40.070 175.721 40.070 59.984 0 116.925-13.030 168.147-36.413l-2.535 1.036zM911.36 641.28c0.139-1.597 0.218-3.456 0.218-5.333s-0.079-3.736-0.235-5.573l0.016 0.24c-10.125 3.094-18.354 9.798-23.363 18.576l-0.104 0.197c-3.202 5.449-5.094 12.002-5.094 18.998 0 2.792 0.301 5.513 0.873 8.133l-0.046-0.251c0.566 2.777 2.295 5.067 4.646 6.376l0.048 0.024h2.987c2.591-0.212 4.93-1.141 6.861-2.585l-0.035 0.025c8.317-7.805 13.498-18.867 13.498-31.139 0-2.718-0.254-5.376-0.74-7.953l0.042 0.265z" />
<glyph unicode="&#xe93d;" glyph-name="ico-detalles" d="M353.28 674.987v-90.88h499.2v90.88h-499.2zM353.28 493.227v-90.453h499.2v90.453h-499.2zM352.853 311.893h499.627v-90.88h-499.627v90.88zM171.52 674.987v-90.88h93.867v90.88h-93.867zM171.52 493.227v-90.453h93.867v90.453h-93.867zM171.52 311.893h94.293v-90.88h-94.293v90.88z" />
<glyph unicode="&#xe93e;" glyph-name="ico-combustible" d="M757.333 533.333c-23.564 0-42.667 19.103-42.667 42.667s19.103 42.667 42.667 42.667c23.564 0 42.667-19.103 42.667-42.667v0c0-23.564-19.103-42.667-42.667-42.667v0zM501.333 533.333h-256v213.333h256zM832.853 651.52v0l-158.293 159.147-45.227-45.227 90.027-90.027c-40.442-15.197-68.697-53.547-68.697-98.497 0-0.322 0.001-0.644 0.004-0.966v0.049c0-58.91 47.756-106.667 106.667-106.667v0c15.445 0.097 30.098 3.384 43.366 9.235l-0.699-0.275v-307.627c0-23.564-19.103-42.667-42.667-42.667s-42.667 19.103-42.667 42.667v0 192c0 47.128-38.205 85.333-85.333 85.333v0h-42.667v298.667c0 47.128-38.205 85.333-85.333 85.333v0h-256c-47.128 0-85.333-38.205-85.333-85.333v0-682.667h426.667v320h64v-213.333c0-58.91 47.756-106.667 106.667-106.667s106.667 47.756 106.667 106.667v0 405.333c0 0.057 0 0.124 0 0.191 0 29.408-11.901 56.036-31.149 75.332l0.002-0.002z" />
<glyph unicode="&#xe93f;" glyph-name="ico-wallet_petro" d="M469.333 602.027c13.063 15.097 32.249 24.591 53.654 24.591 3.499 0 6.939-0.254 10.302-0.744l-0.383 0.046c22.914-1.53 43.148-11.888 57.54-27.666l0.060-0.067c7.889-7.887 13.701-17.852 16.545-29.003l0.095-0.437c3.669-9.436 5.795-20.358 5.795-31.777 0-16.060-4.205-31.138-11.575-44.192l0.233 0.45c-7.896-13.682-19.045-24.694-32.424-32.205l-0.429-0.222c-18.963-9.43-41.301-14.948-64.928-14.948-4.028 0-8.019 0.16-11.966 0.475l0.521-0.033h-13.653c-10.24 0-20.907 0-31.147 0s-5.973 0-5.973 5.547c-0.005 1.020-0.008 2.228-0.008 3.436 0 33.384 2.173 66.259 6.387 98.494l-0.405-3.797c2.908 19.874 10.637 37.546 21.957 52.322l-0.197-0.268zM512 874.667c-235.641 0-426.667-191.025-426.667-426.667s191.025-426.667 426.667-426.667c235.641 0 426.667 191.025 426.667 426.667v0c0 235.641-191.025 426.667-426.667 426.667v0zM541.867 791.467h2.987c163.45-16.808 292.13-145.78 308.363-307.893l0.117-1.441v-5.12l-42.667-2.56v3.413c-14.642 143.646-128.038 256.749-270.535 270.833l-1.251 0.1h-3.413zM170.667 481.28c16.899 162.883 145.17 291.155 306.573 307.929l1.481 0.125h2.987l3.84-42.667h-3.413c-144.083-14.085-257.702-127.704-271.688-270.546l-0.098-1.24v-3.413l-42.667 3.84zM483.84 104.533h-2.987c-164.431 16.093-294.093 145.755-310.074 308.769l-0.112 1.418v3.413l42.667 3.84v-3.413c14.085-144.083 127.704-257.702 270.546-271.688l1.24-0.098h3.413zM451.84 313.173c-4.693 0-4.693 0-4.693-4.267 0-13.227 0-23.040 0-32.853s0-19.627 0-32.853c0-6.4-2.987-9.387-8.96-9.387h-30.293c-8.96 0-10.667 3.84-11.093 11.947s0 23.467 0 33.28 0 20.053-2.133 33.707h-53.333c-9.387 0-11.52 0-11.52 11.52v14.507c0 8.533 3.413 11.947 11.947 12.373 3.761 0.22 8.159 0.345 12.587 0.345s8.826-0.125 13.192-0.372l-0.605 0.027h23.467s0 0 0 0 0 19.627 0 30.293 0 10.24 0 14.080 0 2.987 0 2.987h-49.067c-4.693 0-10.667 0-10.667 9.813 0.203 2.935 0.319 6.361 0.319 9.813s-0.116 6.879-0.344 10.274l0.025-0.46c-0.359 1.022-0.566 2.201-0.566 3.428 0 5.891 4.776 10.667 10.667 10.667 0.199 0 0.397-0.005 0.593-0.016l-0.027 0.001h18.347l24.32 5.973h2.133s0 0 0 0c-0.006 1.12-0.010 2.445-0.010 3.771 0 24.516 1.243 48.741 3.67 72.617l-0.247-3.001c2.469 34.7 11.336 66.777 25.428 95.851l-0.681-1.557c14.555 29.496 42.079 50.682 74.917 56.236l0.603 0.084c11.862 2.692 25.484 4.235 39.467 4.235s27.605-1.543 40.706-4.467l-1.239 0.232c27.043-6.941 49.878-22.019 66.376-42.432l0.184-0.235c16.085-18.428 27.208-41.576 31.056-67.108l0.091-0.732c1.502-7.849 2.361-16.877 2.361-26.105 0-21.447-4.641-41.81-12.972-60.14l0.371 0.912c-12.38-26.99-32.803-48.514-58.169-61.95l-0.711-0.344c-13.863-7.389-30.247-11.914-47.643-12.37l-0.143-0.003c-32.853 0-65.707 0-97.707 0h-5.12c0.083-0.641 0.131-1.381 0.131-2.133s-0.047-1.493-0.14-2.22l0.009 0.086c0-9.387 0-18.773 0-28.16-0.011-0.297-0.018-0.647-0.018-0.997 0-4.615 1.11-8.971 3.078-12.815l-0.074 0.159h104.96c4.267 0 9.387 0 9.387-9.387-0.195-3.315-0.306-7.191-0.306-11.093s0.111-7.779 0.331-11.626l-0.024 0.533c0.484-1.067 0.767-2.314 0.767-3.627s-0.282-2.56-0.79-3.683l0.023 0.056c-1.923-1.643-4.438-2.642-7.186-2.642-0.475 0-0.943 0.030-1.402 0.088l0.055-0.006h-105.387zM853.333 414.72c-16.899-162.883-145.17-291.155-306.573-307.929l-1.481-0.125h-3.413l-3.84 42.667h3.413c144.083 14.085 257.702 127.704 271.688 270.546l0.098 1.24v3.413l42.667-3.84z" />
<glyph unicode="&#xe940;" glyph-name="ico-directorio_servicios" d="M554.667 554.667h213.333v85.333h-213.333v-85.333zM554.667 256h213.333v85.333h-213.333v-85.333zM810.667 64h-597.333c-47.128 0-85.333 38.205-85.333 85.333v0 597.333c0 47.128 38.205 85.333 85.333 85.333v0h597.333c47.128 0 85.333-38.205 85.333-85.333v0-597.333c0-47.128-38.205-85.333-85.333-85.333v0zM256 490.667h213.333v213.333h-213.333v-213.333zM298.667 661.333h128v-128h-128v128zM256 192h213.333v213.333h-213.333v-213.333zM298.667 362.667h128v-128h-128z" />
<glyph unicode="&#xe941;" glyph-name="ico-directorio_servicios2" d="M853.333 704h-341.333l-85.333 85.333h-256c-47.128 0-85.333-38.205-85.333-85.333v0-512c0-47.128 38.205-85.333 85.333-85.333v0h682.667c47.128 0 85.333 38.205 85.333 85.333v0 426.667c0 47.128-38.205 85.333-85.333 85.333v0zM765.44 234.667l-125.44 73.387-125.44-73.387 33.28 142.080-110.507 95.573 145.493 12.373 57.173 133.973 57.173-133.973 145.493-12.373-110.507-95.573z" />
<glyph unicode="&#xe942;" glyph-name="ico-youtube" d="M426.667 320l221.44 128-221.44 128v-256zM919.893 654.080c6.065-23.73 10.33-51.472 11.897-79.932l0.050-1.134c2.987-34.133 4.267-63.573 4.267-89.173l2.56-35.84c0.268-7.958 0.421-17.312 0.421-26.702 0-63.549-6.992-125.465-20.249-185.020l1.055 5.642c-8.984-36.577-37.236-64.829-73.128-73.671l-0.685-0.143c-33.796-7.177-72.793-11.505-112.725-11.944l-0.342-0.003c-55.467-2.987-106.24-4.267-153.173-4.267l-67.84-2.56c-20.735-0.882-45.064-1.384-69.511-1.384-93.381 0-185.050 7.329-274.464 21.444l9.894-1.287c-36.577 8.984-64.829 37.236-73.671 73.128l-0.143 0.685c-6.065 23.73-10.33 51.472-11.897 79.932l-0.050 1.134c-2.987 34.133-4.267 63.573-4.267 89.173l-2.56 35.84c-0.268 7.958-0.421 17.312-0.421 26.702 0 63.549 6.992 125.465 20.249 185.020l-1.055-5.642c8.984 36.577 37.236 64.829 73.128 73.671l0.685 0.143c33.796 7.177 72.793 11.505 112.725 11.944l0.342 0.003c55.467 2.987 106.24 4.267 153.173 4.267l67.84 2.56c20.735 0.882 45.064 1.384 69.511 1.384 93.381 0 185.050-7.329 274.464-21.444l-9.894 1.287c36.577-8.984 64.829-37.236 73.671-73.128l0.143-0.685z" />
<glyph unicode="&#xe943;" glyph-name="ico-conductor2" d="M698.027 687.36c0-102.74-83.287-186.027-186.027-186.027s-186.027 83.287-186.027 186.027c0 102.74 83.287 186.027 186.027 186.027s186.027-83.287 186.027-186.027zM277.76 109.653c35.844 96.461 127.113 163.943 234.143 163.943 41.806 0 81.208-10.296 115.808-28.49l-1.365 0.654 93.867 125.013c-61.765 22.234-133.066 35.983-207.302 37.954l-0.911 0.019c-124.16 0-371.627-62.293-371.627-186.027v-201.387h192c0.010 0.503 0.015 1.097 0.015 1.692 0 37.981-22.056 70.81-54.058 86.378l-0.57 0.25zM512 203.093c-99.205 0-179.627-80.422-179.627-179.627v0 0h358.827c0 0 0 0 0 0.001 0 99.055-80.179 179.383-179.177 179.626h-0.023zM786.773 342.187l-104.107-137.387c27.26-25.909 48.65-57.725 62.146-93.417l0.574-1.729c-32.252-15.556-54.2-47.833-54.613-85.279v-0.055h192v198.4c0.853 49.92-39.68 89.6-96 119.467z" />
<glyph unicode="&#xe944;" glyph-name="ico-conductor" d="M323.84 684.8c0 0.127 0 0.277 0 0.427 0 103.918 84.242 188.16 188.16 188.16s188.16-84.242 188.16-188.16c0-103.918-84.242-188.16-188.16-188.16v0c0 0 0 0 0 0-103.768 0-187.917 83.999-188.159 187.71v0.023zM693.333 23.893c0.136 2.629 0.213 5.707 0.213 8.804 0 100.383-81.377 181.76-181.76 181.76s-181.76-81.377-181.76-181.76c0-3.096 0.077-6.175 0.23-9.233l-0.017 0.43h363.093zM512 413.44c-125.44 0-375.893-63.147-375.893-188.16v-203.947h194.133c-0.040 38.417-22.441 71.592-54.887 87.215l-0.58 0.252c36.428 97.602 128.857 165.848 237.227 165.848s200.799-68.246 236.655-164.105l0.572-1.743c-32.402-15.563-54.568-47.756-55.464-85.217l-0.002-0.117h194.133v201.813c0 125.013-250.453 188.16-375.893 188.16z" />
<glyph unicode="&#xe945;" glyph-name="ico-remesas" d="M640 874.667c1.739 0.038 3.788 0.059 5.842 0.059 81.321 0 154.816-33.506 207.433-87.465l0.059-0.060c52.748-52.48 85.392-125.123 85.392-205.391 0-2.043-0.021-4.080-0.063-6.113l0.005 0.304c-0.163-134.38-89.048-247.957-211.218-285.31l-2.116-0.556v29.867c0.024 1.467 0.037 3.198 0.037 4.932 0 92.676-38.423 176.377-100.208 236.044l-0.095 0.092c-59.758 61.881-143.459 100.304-236.135 100.304-1.734 0-3.465-0.013-5.192-0.040l0.261 0.003h-29.867c37.91 124.286 151.486 213.171 285.847 213.333h0.019zM384 618.667c164.949 0 298.667-133.718 298.667-298.667s-133.718-298.667-298.667-298.667c-164.949 0-298.667 133.718-298.667 298.667v0c0 164.949 133.718 298.667 298.667 298.667v0zM384 533.333c-117.821 0-213.333-95.513-213.333-213.333s95.513-213.333 213.333-213.333c117.821 0 213.333 95.513 213.333 213.333v0c0 117.821-95.513 213.333-213.333 213.333v0z" />
<glyph unicode="&#xe946;" glyph-name="ico-casa_equipada" d="M476.16 334.933l-66.133 66.56-56.747-56.747 122.88-122.88 208.213 204.8-56.747 56.747-151.467-148.48zM512 887.040l-512-460.8h153.6v-409.6h716.8v409.6h153.6zM512 141.227c-0.127 0-0.277 0-0.427 0-125.361 0-226.987 101.625-226.987 226.987s101.625 226.987 226.987 226.987c125.361 0 226.986-101.625 226.987-226.986v0c0 0 0 0 0 0 0-125.211-101.382-226.743-226.537-226.986h-0.023z" />
<glyph unicode="&#xe947;" glyph-name="ico-usuarios" d="M640 362.667c-113.92 0-341.333-56.747-341.333-170.667v-85.333h682.667v85.333c0 113.92-227.413 170.667-341.333 170.667zM640 448c94.257 0 170.667 76.41 170.667 170.667s-76.41 170.667-170.667 170.667c-94.257 0-170.667-76.41-170.667-170.667v0c0-94.257 76.41-170.667 170.667-170.667v0zM213.333 393.387l104.533-63.573-27.733 118.187 93.867 81.92-123.307 10.667-47.36 112.64-48.213-112.64-122.453-10.667 93.013-81.92-29.013-118.187z" />
<glyph unicode="&#xe948;" glyph-name="ico-institucion" d="M512 896l-405.333-213.333v-85.333h810.667v85.333zM704 512v-298.667h128v298.667zM106.667 0h810.667v128h-810.667zM448 512v-298.667h128v298.667zM192 512v-298.667h128v298.667z" />
<glyph unicode="&#xe949;" glyph-name="ico-clap" d="M484.267 917.333c0.126 0.001 0.276 0.001 0.426 0.001 50.899 0 92.16-41.261 92.16-92.16s-41.261-92.16-92.16-92.16c-50.748 0-91.916 41.018-92.159 91.709v0.023c-0.001 0.127-0.001 0.277-0.001 0.428 0 50.749 41.019 91.917 91.711 92.159h0.023zM373.76 453.12l-18.773 3.413c-30.722 6.241-58.009 16.887-82.751 31.402l1.257-0.682c-30.107 16.629-52.071 44.876-59.997 78.539l-0.163 0.821c-26.88 137.387 108.373 216.747 147.2 233.387-1.628 7.368-2.56 15.831-2.56 24.511 0 0.083 0 0.165 0 0.248v-0.013c-7.253-2.56-14.933-5.12-21.76-8.107-90.372-36.574-162.726-102.029-207.154-184.722l-1.060-2.158-7.253-14.080v-2.56c-0.927-2.489-1.932-4.599-3.096-6.604l0.109 0.204c-2.56-5.547-5.12-11.947-7.253-17.493s-3.84-8.96-5.547-13.227c-4.693-12.8-8.533-25.6-12.373-37.973v0c0-5.973-2.987-11.52-4.267-16.64s-2.987-13.653-4.267-20.907c-0.114-1.532-0.179-3.318-0.179-5.12s0.065-3.588 0.193-5.357l-0.014 0.237s0-2.56 0-4.267c-2.954-17.654-4.643-37.994-4.643-58.729 0-13.88 0.757-27.583 2.231-41.071l-0.148 1.667v-2.133c0.077-0.958 0.12-2.074 0.12-3.2s-0.044-2.242-0.129-3.346l0.009 0.146c57.124-21.498 123.349-36.642 192.227-42.478l2.76-0.188h22.613c1.33-0.023 2.9-0.036 4.472-0.036 25.568 0 50.334 3.439 73.859 9.879l-1.958-0.457c20.139 5.438 37.429 15.679 51.201 29.441l-0.001-0.001c7.227 6.925 11.719 16.656 11.719 27.435 0 6.852-1.815 13.281-4.99 18.831l0.098-0.186c-11.947 26.453-59.307 31.573-59.733 31.573zM484.267 698.453c-49.552 0.027-92.382 28.782-112.74 70.511l-0.327 0.743c-33.339-15.696-61.659-36.647-85.165-62.109l-0.168-0.185c-26.593-27.013-43.013-64.108-43.013-105.039 0-10.391 1.058-20.534 3.073-30.328l-0.166 0.967c5.649-23.513 19.971-42.985 39.314-55.25l0.366-0.217c39.124 75.067 116.362 125.441 205.365 125.441 0.251 0 0.503 0 0.754-0.001h2.521c12.16 25.086 25.514 46.634 40.788 66.637l-0.682-0.93c-14.73-6.364-31.87-10.118-49.874-10.24h-0.046zM938.667 197.12c-15.379-30.712-46.606-51.427-82.67-51.427-50.899 0-92.16 41.261-92.16 92.16 0 19.183 5.861 36.996 15.889 51.749l-0.206-0.321c16.787 24.712 44.761 40.733 76.477 40.733 50.899 0 92.16-41.261 92.16-92.16 0-14.834-3.505-28.85-9.731-41.264l0.241 0.531zM592.213 524.373l12.373 14.507c19.019 21.911 41.283 40.369 66.171 54.802l1.242 0.665c17.397 10.289 38.34 16.368 60.703 16.368 12.594 0 24.738-1.928 36.153-5.505l-0.855 0.231c133.973-42.667 134.4-200.533 128-242.773 8.645-2.804 16.127-6.274 23.091-10.51l-0.478 0.27c1.583 6.154 3.077 13.969 4.144 21.919l0.123 1.121c2.613 17.354 4.105 37.379 4.105 57.753 0 80.803-23.471 156.123-63.966 219.517l0.982-1.643c-2.987 4.267-5.973 8.533-8.533 12.8v2.56l-2.133 5.12c-3.721 5.602-7.51 10.475-11.623 15.050l0.103-0.117c-2.817 4.169-5.622 7.787-8.638 11.214l0.105-0.121c-8.533 10.667-17.92 20.48-26.453 29.867v0c-4.267 4.267-8.107 8.533-12.373 12.373l-15.36 14.080-11.093 6.4v2.56c-24.666 19.935-52.754 37.218-82.928 50.669l-2.405 0.958h-2.133l-5.973 2.56c-50.816-42.936-94.985-91.306-132.366-144.773l-1.607-2.427c-4.267-6.4-8.107-12.8-11.947-19.2-12.076-20.237-22.261-43.609-29.349-68.292l-0.518-2.108c-3.529-11.009-5.563-23.673-5.563-36.812 0-9.637 1.094-19.018 3.165-28.026l-0.162 0.838c4.423-16.547 19.095-28.604 36.648-29.012l0.046-0.001c29.44-1.707 57.6 36.693 57.6 37.12zM749.653 306.347c22.676 37.949 63.541 62.966 110.248 62.966 2.793 0 5.565-0.089 8.314-0.266l-0.375 0.019c0.313 4.829 0.492 10.47 0.492 16.152 0 31.52-5.495 61.757-15.58 89.805l0.581-1.851c-12.914 48.333-48.361 86.313-94.108 102.506l-1.039 0.321c-7.682 2.395-16.515 3.775-25.67 3.775-15.444 0-29.971-3.926-42.637-10.834l0.467 0.233c23.222-35.408 37.039-78.795 37.039-125.409 0-42.593-11.536-82.492-31.655-116.742l0.589 1.084v-2.56c13.628-19.433 25.925-41.608 35.808-65.049l0.885-2.364c1.88 17.934 7.189 34.275 15.267 48.871l-0.334-0.657zM87.893 164.267c-7.955 13.346-12.658 29.431-12.658 46.615 0 50.899 41.261 92.16 92.16 92.16s92.16-41.261 92.16-92.16c0-33.99-18.401-63.682-45.784-79.659l-0.438-0.236c-13.211-7.808-29.113-12.421-46.093-12.421-33.708 0-63.169 18.181-79.114 45.271l-0.234 0.43zM544 301.227c2.011-4.689 4.19-10.781 6.056-17.009l0.344-1.338c9.192-25.122 14.508-54.127 14.508-84.373 0-0.338-0.001-0.675-0.002-1.013v0.052c0.008-0.526 0.013-1.147 0.013-1.769 0-35.241-15.097-66.956-39.177-89.030l-0.090-0.081c-105.813-93.867-241.067-16.213-275.2 8.96-5.894-5.337-12.461-10.138-19.501-14.212l-0.552-0.295c5.973-5.12 11.947-10.24 17.92-14.507 67.882-53.483 154.63-85.781 248.922-85.781 6.692 0 13.345 0.163 19.957 0.484l-0.932-0.036h25.6l18.773 2.133 14.080 2.133c13.653 2.133 26.453 5.12 38.827 8.107v0l16.64 4.267 20.053 6.827 9.813 3.413h3.84c32.583 12.839 60.717 28.479 86.411 47.258l-1.078-0.751 5.12 4.267c-13.214 71.404-34.524 135.045-63.399 194.323l1.959-4.456c-3.413 6.827-6.827 13.227-10.667 19.627-11.867 24.597-25.963 45.787-42.528 64.764l0.288-0.337c-14.25 15.695-32.602 27.422-53.366 33.501l-0.82 0.206c-3.145 0.963-6.761 1.518-10.506 1.518-13.677 0-25.627-7.397-32.066-18.409l-0.095-0.176c-18.773-24.32 0.853-67.84 0.853-68.267zM276.48 273.92c10.486-18.159 16.673-39.941 16.673-63.169 0-26.379-7.98-50.895-21.657-71.264l0.291 0.46c27.347-19.345 59.473-34.097 94.132-42.294l1.868-0.373c11.2-3.001 24.059-4.725 37.32-4.725 38.129 0 72.929 14.249 99.368 37.713l-0.154-0.135c16.621 15.595 27.249 37.407 28.155 61.705l0.005 0.162c-3.985-0.245-8.642-0.385-13.332-0.385-85.058 0-159.37 46.006-199.411 114.493l-0.59 1.093v2.56c-11.525-1.392-24.87-2.186-38.4-2.186s-26.875 0.794-39.991 2.339l1.591-0.152c13.636-9.716 25.004-21.628 33.828-35.334l0.305-0.506z" />
<glyph unicode="&#xe94a;" glyph-name="ico-desvincular" d="M725.333 661.333h-170.667v-81.067h170.667c0.114 0 0.25 0.001 0.385 0.001 73.049 0 132.267-59.218 132.267-132.267 0-61.206-41.573-112.701-98.021-127.79l-0.924-0.21 62.293-61.44c69.002 36.275 115.253 107.461 115.253 189.45 0 117.089-94.33 212.147-211.142 213.322l-0.111 0.001zM682.667 490.667h-93.44l85.333-85.333h8.107v85.333zM85.333 777.813l132.693-132.693c-78.004-32.895-131.761-108.731-131.761-197.122 0-117.493 94.982-212.802 212.35-213.331h170.718v81.067h-170.667c-1.599-0.069-3.475-0.109-5.36-0.109-72.813 0-131.84 59.027-131.84 131.84 0 69.595 53.924 126.595 122.269 131.498l0.424 0.024 88.32-88.32h-31.147v-85.333h116.48l96.853-96.853v-73.813h73.813l170.667-170.667 54.187 53.76-713.813 714.24z" />
<glyph unicode="&#xe94b;" glyph-name="ico-chamba_juvenil" d="M364.373 743.68c-78.601-0.952-151.313-25.372-211.672-66.56l1.325 0.854c-7.977-24.904-12.574-53.552-12.574-83.274 0-65.361 22.234-125.529 59.552-173.353l-0.471 0.627c-0.316 3.896-0.497 8.434-0.497 13.013s0.18 9.118 0.534 13.607l-0.038-0.593c0 2.987 0 5.973 0 8.96-0.22 4.354-0.346 9.453-0.346 14.582 0 117.431 65.799 219.494 162.539 271.332l1.647 0.806zM256 328.533v0c-4.158 2.754-7.786 5.704-11.103 8.969l0.009-0.009c-80.662 55.892-132.823 147.974-132.823 252.239 0 19.125 1.755 37.84 5.113 55.992l-0.29-1.885c-40.854-48.598-65.675-111.859-65.675-180.917 0-5.249 0.143-10.465 0.427-15.644l-0.031 0.721c0-317.44 375.040-295.253 375.040-295.253v135.68c-6.203-0.464-13.437-0.728-20.732-0.728-55.286 0-107.027 15.173-151.288 41.583l1.353-0.748zM239.787 550.827c65.707 59.733 186.88 42.667 186.88 42.667v146.773c-89.253-30.086-157.979-99.652-186.304-187.375l-0.576-2.065zM824.32 743.253h76.8v-194.56h-76.8v194.56zM474.027 743.253h76.8v-590.507h-76.8v590.507zM824.32 359.68h76.8v-206.933h-76.8v206.933zM930.56 743.253v-224.427l-311.467-0.427v224.853h-38.4v-590.507h44.8v236.373h305.067v-236.373h41.813v590.507h-41.813z" />
<glyph unicode="&#xe94c;" glyph-name="ico-somos_venezuela_2" d="M669.44 533.333v0c13.682-6.23 24.1-17.621 28.901-31.622l0.113-0.378c2.013-5.349 3.179-11.532 3.179-17.987 0-9.034-2.283-17.535-6.303-24.957l0.137 0.277-55.467-115.2c-9.817-18.172-28.726-30.31-50.469-30.31-9.284 0-18.052 2.213-25.803 6.14l0.326-0.15c-13.682 6.23-24.1 17.621-28.901 31.622l-0.113 0.378c-2.013 5.349-3.179 11.532-3.179 17.987 0 9.034 2.283 17.535 6.303 24.957l-0.137-0.277 56.747 116.48c9.709 18.154 28.539 30.296 50.205 30.296 0.2 0 0.399-0.001 0.599-0.003h-0.030c8.874-0.74 17-3.339 24.186-7.406l-0.293 0.153zM631.467 837.973v0c-7.496 3.226-16.221 5.102-25.385 5.102-26.545 0-49.414-15.741-59.781-38.398l-0.168-0.41s-115.2-267.947-124.587-291.413c-2.070-10.035-10.833-17.472-21.333-17.472s-19.263 7.437-21.309 17.331l-0.024 0.141-50.347 301.227c-6.199 29.376-31.906 51.108-62.688 51.108-3.475 0-6.886-0.277-10.211-0.81l0.366 0.048c-31.030-3.386-54.962-29.447-54.962-61.098 0-3.435 0.282-6.804 0.824-10.086l-0.049 0.357 58.027-325.973c1.305-12.079 11.446-21.399 23.763-21.399 1.708 0 3.374 0.179 4.98 0.52l-0.156-0.028c46.507 7.253 128 18.347 187.733 26.88 3.562 0.989 7.653 1.557 11.877 1.557 11.856 0 22.666-4.477 30.831-11.833l-0.041 0.037c9.813-10.24 17.92-6.827 20.907 0l128 293.547c3.145 7.058 4.976 15.294 4.976 23.958 0 26.46-17.082 48.929-40.819 56.984l-0.424 0.125zM792.32 448c-7.387 3.769-16.111 5.977-25.351 5.977-0.238 0-0.475-0.001-0.712-0.004h0.036c-0.161 0.002-0.351 0.003-0.541 0.003-21.568 0-40.346-11.942-50.083-29.575l-0.149-0.294-58.453-113.493c-4.181-7.399-6.645-16.246-6.645-25.67 0-6.084 1.027-11.928 2.917-17.368l-0.112 0.372c4.988-14.334 15.18-25.775 28.259-32.279l0.327-0.147c7.48-3.766 16.302-5.971 25.639-5.971 21.709 0 40.633 11.921 50.584 29.574l0.15 0.29 58.88 116.053c3.705 7.107 5.878 15.521 5.878 24.443 0 5.746-0.901 11.28-2.57 16.471l0.106-0.381c-4.899 14.144-14.942 25.436-27.838 31.855l-0.322 0.145zM420.267 423.253h-2.56l-18.773-2.987-110.933-14.933c-22.076-2.539-41.077-13.951-53.618-30.524l-0.142-0.196c-9.692-12.321-15.544-28.059-15.544-45.165 0-3.331 0.222-6.611 0.652-9.824l-0.041 0.376c0-7.68 24.32-156.16 33.28-213.333 7.795-42.198 44.307-73.738 88.185-73.738 5.171 0 10.24 0.438 15.172 1.279l-0.53-0.075 71.253 8.533c24.781 3.323 45.995 16.402 59.992 35.177l0.168 0.236c10.318 13.557 16.531 30.727 16.531 49.347 0 4.875-0.426 9.651-1.242 14.292l0.072-0.492-3.84 25.173-9.387 49.067c-12.473 36.839-46.734 62.883-87.078 62.883-4.805 0-9.523-0.369-14.128-1.081l0.513 0.065c-0.138-0.007-0.299-0.010-0.461-0.010-5.359 0-9.756 4.116-10.203 9.359l-0.003 0.038c-0.009 0.168-0.015 0.364-0.015 0.562 0 5.294 3.856 9.687 8.913 10.523l0.062 0.008 24.32 4.693 23.467 4.693c41.395 8.262 72.154 44.306 72.154 87.534 0 1.027-0.017 2.049-0.052 3.067l0.004-0.148c0 14.507-3.413 24.32-10.24 29.44-5.443 3.192-11.986 5.078-18.97 5.078-3.418 0-6.731-0.452-9.882-1.299l0.266 0.061zM664.32 201.813c-26.878 11.512-46.373 35.672-51.133 64.787l-0.067 0.493c0.335 0.476 0.536 1.068 0.536 1.707s-0.2 1.231-0.542 1.716l0.006-0.009c-2.568-0.184-5.565-0.288-8.586-0.288-24.589 0-47.559 6.933-67.061 18.952l0.553-0.317-20.48 14.080c-2.762 2.309-6.325 3.743-10.219 3.84h-0.021c-0.959 0.277-2.061 0.437-3.2 0.437s-2.241-0.159-3.284-0.457l0.084 0.021-14.080-9.813c-2.575-1.883-4.327-4.76-4.689-8.055l-0.005-0.052c-0.034-0.278-0.053-0.599-0.053-0.925 0-2.553 1.18-4.83 3.024-6.316l0.016-0.012c7.759-8.066 14.912-16.845 21.309-26.183l0.451-0.697c6.96-9.344 12.383-20.306 15.627-32.168l0.16-0.685 14.933-83.2c3.604-18.949 13.411-35.164 27.189-46.836l0.118-0.097c7.128-4.669 15.861-7.447 25.243-7.447 4.69 0 9.218 0.694 13.487 1.986l-0.329-0.086c61.867 13.653 121.6 23.040 122.027 23.040 23.334 4.183 43.379 16.003 57.924 32.732l0.103 0.121c6.403 9.329 10.226 20.864 10.226 33.292 0 4.994-0.617 9.843-1.78 14.477l0.087-0.409v8.107c-1.408 10.44-3.647 19.807-6.714 28.791l0.314-1.057-4.267-4.267c-18.275-17.491-43.11-28.258-70.46-28.258-16.955 0-32.944 4.138-47.011 11.459l0.565-0.268z" />
<glyph unicode="&#xe94d;" glyph-name="ico-integrante_sv" d="M687.36 480.427v0c11.841-8.181 20.236-20.625 22.986-35.070l0.054-0.344c0.456-2.578 0.717-5.546 0.717-8.575 0-11.55-3.793-22.214-10.201-30.815l0.097 0.137-72.107-104.107c-10.379-13.831-26.742-22.683-45.172-22.683-12.172 0-23.443 3.862-32.653 10.427l0.172-0.117c-12.016 8.011-20.482 20.536-22.995 35.099l-0.045 0.315c-0.501 2.68-0.788 5.762-0.788 8.912 0 11.247 3.657 21.64 9.847 30.055l-0.099-0.141 72.533 104.533c10.358 14.137 26.9 23.213 45.562 23.213 2.893 0 5.734-0.218 8.51-0.639l-0.312 0.039c9.075-1.958 17.086-5.512 24.113-10.384l-0.22 0.144zM793.6 381.867c-6.904 4.697-15.126 8.011-23.995 9.347l-0.325 0.040c-2.86 0.527-6.152 0.828-9.513 0.828-17.821 0-33.664-8.47-43.723-21.603l-0.097-0.132-75.947-103.68c-6.516-8.451-10.444-19.19-10.444-30.847 0-2.817 0.229-5.581 0.671-8.274l-0.040 0.294c2.44-14.948 10.749-27.596 22.437-35.724l0.176-0.116c9.124-6.534 20.511-10.449 32.813-10.449 18.178 0 34.361 8.548 44.746 21.843l0.094 0.126 75.947 103.68c6.516 8.451 10.444 19.19 10.444 30.847 0 2.817-0.229 5.581-0.671 8.274l0.040-0.294c-2.814 14.818-11.018 27.347-22.453 35.728l-0.16 0.112zM421.973 418.56h-133.547c-0.627 0.017-1.366 0.027-2.106 0.027-21.669 0-41.362-8.457-55.959-22.25l0.039 0.036c-13.833-13.309-22.569-31.83-23.038-52.393l-0.002-0.087v-213.333c-0.003-0.255-0.004-0.556-0.004-0.857 0-49.956 40.497-90.453 90.453-90.453 0.301 0 0.603 0.001 0.903 0.004h69.927c0.592-0.014 1.29-0.021 1.99-0.021 24.323 0 46.446 9.423 62.916 24.817l-0.053-0.049c15.282 14.962 24.757 35.804 24.757 58.859 0 0.457-0.004 0.914-0.011 1.369l0.001-0.069v75.093c-3.413 56.32-56.747 72.96-88.32 78.080-5.084 0.652-8.972 4.953-8.972 10.161 0 0.178 0.005 0.354 0.013 0.53l-0.001-0.025c0.441 5.38 4.816 9.607 10.22 9.813l0.020 0.001h49.067c44.145 1.638 79.986 35.126 85.29 78.073l0.044 0.433c0 14.507 0 24.747-5.973 30.72-6.754 6.956-16.195 11.273-26.643 11.273-1.286 0-2.556-0.065-3.808-0.193l0.157 0.013zM587.947 539.733c-4.115 14.794-13.998 26.765-27.010 33.566l-0.297 0.141c-7.955 4.32-17.419 6.86-27.476 6.86-20.924 0-39.28-10.994-49.607-27.521l-0.143-0.246-56.747-104.533h42.667c1.521 0.129 3.291 0.203 5.079 0.203 16.873 0 32.211-6.574 43.593-17.3l-0.032 0.030c6.287-6.96 10.797-15.643 12.742-25.255l0.058-0.345 50.773 93.867c5.019 7.861 8 17.447 8 27.728 0 4.549-0.584 8.962-1.68 13.168l0.080-0.362zM286.293 448v0h110.507c0 56.747-7.68 351.147-7.68 351.147-1.407 34.097-29.288 61.232-63.553 61.44h-0.020c-0.381 0.009-0.831 0.013-1.282 0.013-33.932 0-61.44-27.508-61.44-61.44 0-0.155 0.001-0.309 0.002-0.464v0.024l7.68-350.72c2.363 0.189 5.115 0.297 7.893 0.297s5.531-0.108 8.254-0.32l-0.361 0.023zM627.627 161.28c-23.551 15.919-38.829 42.524-38.829 72.697 0 0.243 0.001 0.485 0.003 0.727v-0.037c0.287 0.49 0.457 1.078 0.457 1.707s-0.17 1.217-0.466 1.723l0.009-0.016c-27.556 2.333-52.235 13.068-71.874 29.599l0.194-0.159-18.347 17.067c-2.219 2.961-5.523 5.003-9.312 5.538l-0.075 0.009c-1.014 0.388-2.188 0.613-3.413 0.613s-2.399-0.225-3.481-0.635l0.067 0.022-15.36-7.253c-2.875-1.51-5.023-4.076-5.952-7.169l-0.022-0.085c-0.519-1.129-0.821-2.449-0.821-3.84s0.303-2.711 0.845-3.899l-0.024 0.059c5.899-8.435 11.845-18.203 17.187-28.34l0.733-1.527c5.024-10.172 8.633-21.988 10.185-34.442l0.055-0.544v-85.333s0-53.333 19.627-71.253c8.471-7.341 19.601-11.814 31.776-11.814 1.883 0 3.74 0.107 5.567 0.315l-0.223-0.021h136.533c1.639-0.159 3.543-0.249 5.469-0.249 19.461 0 36.763 9.24 47.759 23.573l0.105 0.143c9.985 19.494 15.838 42.527 15.838 66.928 0 1.371-0.018 2.738-0.055 4.1l0.004-0.201v7.68c0.333 4.278 0.523 9.263 0.523 14.293s-0.19 10.016-0.563 14.95l0.040-0.657-5.12-3.413c-16.256-11.541-36.504-18.449-58.365-18.449-22.121 0-42.591 7.073-59.269 19.082l0.301-0.206z" />
<glyph unicode="&#xe94e;" glyph-name="ico-rubros" d="M224 554.667l106.667-192h-213.333l106.667 192zM138.667 789.333h170.667v-170.667h-170.667v170.667zM224 106.667c47.128 0 85.333 38.205 85.333 85.333s-38.205 85.333-85.333 85.333c-47.128 0-85.333-38.205-85.333-85.333v0c0-47.128 38.205-85.333 85.333-85.333v0zM394.667 746.667v-85.333h512v85.333h-512zM394.667 149.333h512v85.333h-512v-85.333zM394.667 405.333h512v85.333h-512z" />
<glyph unicode="&#xe94f;" glyph-name="ico-guias_movilizacion" d="M128 789.333c-47.128 0-85.333-38.205-85.333-85.333v0-469.333h85.333c0-70.692 57.308-128 128-128s128 57.308 128 128v0h256c0-70.692 57.308-128 128-128s128 57.308 128 128v0h85.333v213.333l-128 170.667h-128v170.667zM426.667 704l170.667-170.667-170.667-170.667v128h-256v85.333h256zM725.333 554.667h106.667l85.333-106.667h-192zM256 298.667c35.346 0 64-28.654 64-64s-28.654-64-64-64c-35.346 0-64 28.654-64 64v0c0 35.346 28.654 64 64 64v0zM768 298.667c35.346 0 64-28.654 64-64s-28.654-64-64-64c-35.346 0-64 28.654-64 64v0c0 35.346 28.654 64 64 64v0z" />
<glyph unicode="&#xe950;" glyph-name="ico-solicitud_pago" d="M606.293 226.133h-551.68v542.293h837.973v-281.173c-15.851 4.246-34.067 6.73-52.849 6.826h-0.058c-16.184-0.042-31.946-1.749-47.154-4.958l1.5 0.265v81.92c-54.336 0.241-98.319 44.224-98.56 98.537v0.023h-443.733c0-54.433-44.127-98.56-98.56-98.56v0-148.053c0.127 0.001 0.277 0.001 0.428 0.001 54.198 0 98.133-43.936 98.133-98.133 0-0.15 0-0.301-0.001-0.451v0.023h357.12c-4.248-16.24-6.733-34.901-6.826-54.128v-0.058c0.119-15.766 1.667-31.091 4.519-45.953l-0.252 1.58zM350.293 497.493c-0.012-0.635-0.018-1.383-0.018-2.133 0-68.1 55.206-123.307 123.307-123.307s123.307 55.206 123.307 123.307c0 68.094-55.196 123.296-123.287 123.307h-0.001c-0.005 0-0.012 0-0.018 0-67.35 0-122.089-53.997-123.287-121.061l-0.002-0.112zM1013.333 349.013l-53.333 64.853-164.693-164.693-73.387 70.827-53.333-51.2 128-137.813z" />
<glyph unicode="&#xe951;" glyph-name="ico-confirmar_guias" d="M128 789.333h597.333v-170.667h128l128-170.667v-213.333h-85.333c0-70.692-57.308-128-128-128s-128 57.308-128 128v0h-256c0-70.692-57.308-128-128-128s-128 57.308-128 128v0h-85.333v469.333c0 47.128 38.205 85.333 85.333 85.333v0zM725.333 554.667v-106.667h190.72l-85.333 106.667h-105.387zM256 298.667c-35.346 0-64-28.654-64-64s28.654-64 64-64c35.346 0 64 28.654 64 64v0c0 35.346-28.654 64-64 64v0zM768 298.667c-35.346 0-64-28.654-64-64s28.654-64 64-64c35.346 0 64 28.654 64 64v0c0 35.346-28.654 64-64 64v0zM341.333 362.667l256 256-60.16 60.587-195.84-195.84-89.173 89.173-60.16-60.587z" />
<glyph unicode="&#xe952;" glyph-name="ico-verificado2_automatico" d="M16.213 309.76l239.787-238.507 59.733 60.587-238.933 238.080zM947.2 643.84l-451.413-451.84-177.067 177.92-62.72-60.16 238.080-238.507 512 512zM768 583.253l-61.44 60.587-271.36-270.933 60.587-60.16zM213.333 824.747c-108.918-0.243-197.12-88.594-197.12-197.546 0-109.102 88.445-197.547 197.547-197.547s197.546 88.444 197.547 197.546v0c-0.243 109.154-88.785 197.547-197.973 197.547 0 0 0 0-0.001 0v0zM175.787 504.32v245.76l122.88-122.88z" />
<glyph unicode="&#xe953;" glyph-name="ico-verificado1_automatico" d="M885.333 583.253l-512-512-234.667 234.667 60.16 60.16 174.507-174.080 451.84 451.413zM336.213 824.747c-109.102 0-197.547-88.445-197.547-197.547s88.445-197.547 197.547-197.547c109.102 0 197.547 88.445 197.547 197.547v0c0 109.102-88.445 197.547-197.547 197.547v0zM298.667 504.32v245.76l122.88-122.88z" />
<glyph unicode="&#xe954;" glyph-name="ico-transferencia_familiar" d="M149.76 64v384h-144.64l480.853 432.213 480.853-432.213h-144.64v-106.667h-132.693c-1.909 0.082-4.149 0.129-6.4 0.129-87.894 0-159.147-71.252-159.147-159.147 0-4.099 0.155-8.162 0.459-12.184l-0.033 0.535c0-0.109 0-0.237 0-0.366 0-38.329 4.667-75.569 13.463-111.181l-0.663 3.174h-387.413zM864.853 17.067l154.027 153.6-154.027 154.027v-102.827h-204.8v-102.4h204.8v-102.4z" />
<glyph unicode="&#xe955;" glyph-name="ico-transferencia_terceros" d="M849.92 37.547v96.853h-193.28v96.427h193.28v96.427l144.64-144.64-144.64-144.64zM415.573 858.453c106.746 0 193.28-86.534 193.28-193.28s-86.534-193.28-193.28-193.28c-106.746 0-193.28 86.534-193.28 193.28v0c0.242 106.648 86.632 193.038 193.257 193.28h0.023zM415.573 375.467c1.509 0.012 3.292 0.018 5.078 0.018 53.528 0 105.675-5.913 155.823-17.122l-4.741 0.89c-37.262-48.006-59.736-109.112-59.736-175.466 0-0.413 0.001-0.825 0.003-1.238v0.064c0.008-34.54 5.946-67.691 16.851-98.493l-0.638 2.066h-498.773v96.427c0 106.667 172.8 192.853 386.133 192.853z" />
<glyph unicode="&#xe956;" glyph-name="ico-intercambio" d="M938.667 448c0 235.641-191.025 426.667-426.667 426.667s-426.667-191.025-426.667-426.667c0-235.641 191.025-426.667 426.667-426.667v0c235.641 0 426.667 191.025 426.667 426.667v0zM640 682.667l149.333-149.333-149.333-149.333v106.667h-170.667v85.333h170.667v106.667zM384 213.333l-149.333 149.333 149.333 149.333v-106.667h170.667v-85.333h-170.667z" />
<glyph unicode="&#xe957;" glyph-name="ico-cptt" d="M512 746.667c-82.475 0-149.333-66.859-149.333-149.333s66.859-149.333 149.333-149.333c82.475 0 149.333 66.859 149.333 149.333v0c0 82.475-66.859 149.333-149.333 149.333v0zM512 661.333c35.346 0 64-28.654 64-64s-28.654-64-64-64c-35.346 0-64 28.654-64 64v0c0 35.346 28.654 64 64 64v0zM234.667 618.667c-0.174 0.001-0.379 0.002-0.584 0.002-58.91 0-106.667-47.756-106.667-106.667s47.756-106.667 106.667-106.667c19.183 0 37.183 5.064 52.737 13.927l-0.525-0.276c15.924 9.215 28.98 21.725 38.56 36.675l0.267 0.445c-29.812 38.545-47.787 87.562-47.787 140.777 0 0.158 0 0.316 0 0.474v-0.025 11.947c-12.445 5.926-27.045 9.387-42.453 9.387-0.075 0-0.15 0-0.225 0h0.012zM789.333 618.667c-0.063 0-0.138 0-0.213 0-15.408 0-30.008-3.461-43.065-9.648l0.612 0.261v-11.947c0-0.134 0-0.291 0-0.449 0-53.215-17.975-102.233-48.184-141.311l0.397 0.534c5.094-7.885 10.723-14.734 17.040-20.881l0.027-0.026c6.309-6.21 13.459-11.592 21.257-15.955l0.503-0.258c14.839-8.577 32.642-13.638 51.627-13.638s36.787 5.061 52.132 13.907l-0.506-0.269c32.737 18.632 54.456 53.287 54.456 93.015 0 58.705-47.424 106.333-106.051 106.665h-0.032zM512 362.667c-99.84 0-298.667-49.92-298.667-149.333v-64h597.333v64c0 99.413-198.827 149.333-298.667 149.333zM200.96 339.2c-82.347-9.813-200.96-51.627-200.96-125.867v-64h128v82.347c4.616 47.011 32.689 86.564 72.212 107.165l0.748 0.355zM823.040 339.2c40.272-20.957 68.344-60.509 72.916-106.962l0.044-0.558v-82.347h128v64c0 74.24-118.613 116.053-200.96 125.867zM512 277.333c65.837-1.425 127.698-17.012 183.12-43.818l-2.64 1.152h-360.96c52.782 25.655 114.643 41.242 179.996 42.658l0.484 0.008z" />
<glyph unicode="&#xe958;" glyph-name="ico-recarga_fondos" d="M476.587 213.333v341.333c0 47.128 38.205 85.333 85.333 85.333v0h384v42.667c0 47.128-38.205 85.333-85.333 85.333v0h-411.733c3.016-15.265 4.868-32.933 5.118-50.987l0.002-0.213c0.004-0.451 0.006-0.983 0.006-1.517 0-99.44-78.023-180.657-176.19-185.771l-0.456-0.019h-99.413v-444.16c0-47.128 38.205-85.333 85.333-85.333v0h597.333c47.128 0 85.333 38.205 85.333 85.333v0 42.667h-384c-47.128 0-85.333 38.205-85.333 85.333v0zM561.92 554.667v-341.333h426.667v341.333zM732.587 320c-35.346 0-64 28.654-64 64s28.654 64 64 64c35.346 0 64-28.654 64-64v0c0-35.346-28.654-64-64-64v0zM248.747 578.56v96.853h-193.28v96.427h193.28v96.427l144.64-144.64-144.64-145.067z" />
<glyph unicode="&#xe959;" glyph-name="ico-retiro_fondos" d="M476.587 213.333v341.333c0 47.128 38.205 85.333 85.333 85.333v0h384v42.667c0 47.128-38.205 85.333-85.333 85.333v0h-411.733c2.818-15.118 4.661-32.772 5.112-50.772l0.008-0.428c0.004-0.451 0.006-0.983 0.006-1.517 0-99.44-78.023-180.657-176.19-185.771l-0.456-0.019h-99.413v-444.16c0-47.128 38.205-85.333 85.333-85.333v0h597.333c47.128 0 85.333 38.205 85.333 85.333v0 42.667h-384c-47.128 0-85.333 38.205-85.333 85.333v0zM561.92 554.667v-341.333h426.667v341.333zM732.587 320c-35.346 0-64 28.654-64 64s28.654 64 64 64c35.346 0 64-28.654 64-64v0c0-35.346-28.654-64-64-64v0zM177.92 578.56l-144.64 145.067 144.64 144.64v-96.427h193.28v-96.427h-193.28v-96.853z" />
<glyph unicode="&#xe95a;" glyph-name="ico-ahorro_oro" d="M512 874.667c-235.641 0-426.667-191.025-426.667-426.667s191.025-426.667 426.667-426.667c235.641 0 426.667 191.025 426.667 426.667v0 0c0 235.641-191.025 426.667-426.667 426.667v0zM497.067 312.32h-266.667c3.84 15.787 7.253 31.147 11.093 46.933 7.68 30.72 14.933 61.867 22.613 93.013 0 5.12 2.987 6.827 8.107 6.827h183.893c0.27 0.038 0.582 0.060 0.9 0.060 3.491 0 6.369-2.62 6.777-6l0.003-0.033c11.093-45.653 21.76-91.733 32.853-137.387zM384 490.667c5.12 21.76 10.24 42.667 15.36 63.573s14.080 42.667 19.627 69.547c0 5.973 0 13.653 7.68 13.653h174.933c12.8 0 12.8 0 16.213-13.653l30.72-128c0-2.133 0-3.84 0-6.4zM536.747 312.747l14.080 59.307c6.4 26.88 13.227 53.333 19.2 79.787 0 5.973 3.84 7.68 8.96 7.68h182.187c5.547 0 7.253 0 8.533-7.253l30.72-132.267s0-3.413 0-5.973z" />
<glyph unicode="&#xe95b;" glyph-name="ico-ahorro_petro" d="M515.413 874.667c0.234 0 0.511 0.001 0.789 0.001 214.57 0 392.147-158.39 422.189-364.628l0.276-2.306c2.831-18.224 4.448-39.244 4.448-60.642 0-114.789-46.54-218.708-121.78-293.916l-0.001-0.001c-75.162-78.965-181.063-128.076-298.434-128.076-2.782 0-5.558 0.028-8.327 0.083l0.414-0.006c-13.224-1.454-28.559-2.284-44.087-2.284-235.641 0-426.667 191.025-426.667 426.667s191.025 426.667 426.667 426.667c12.816 0 25.501-0.565 38.029-1.672l-1.622 0.116zM523.093 331.947h-68.693c-5.12 0-7.253 0-6.827 6.827 0 11.947 0 23.893 0 35.84s0 10.24 10.24 10.24c42.667 0 82.773 0 124.16 0 21.42 1.071 41.249 6.949 58.729 16.567l-0.702-0.354c33.82 17.33 60.082 45.384 74.699 79.602l0.394 1.038c9.953 21.738 15.755 47.157 15.755 73.93 0 10.659-0.92 21.104-2.684 31.259l0.156-1.082c-5.271 32.923-19.069 61.949-39.040 85.592l0.213-0.259c-20.724 24.345-48.643 42.004-80.45 49.707l-1.044 0.213c-14.809 3.455-31.813 5.435-49.28 5.435s-34.471-1.98-50.8-5.729l1.52 0.294c-40.946-7.104-74.694-32.835-92.677-67.971l-0.336-0.723c-17.634-34.644-29.262-75.147-32.367-118.012l-0.060-1.028c-3.019-25.113-4.742-54.195-4.742-83.679 0-2.982 0.018-5.96 0.053-8.934l-0.004 0.453c0-5.12 0-6.827-6.4-7.253-18.773 0-37.12-3.84-55.893-5.547-7.253 0-10.24-3.84-10.24-11.093 0.204-3.759 0.32-8.159 0.32-12.587s-0.116-8.827-0.345-13.198l0.026 0.611c0-6.827 2.56-8.107 8.96-8.107h60.16c5.547 0 7.68 0 7.68-7.253 0-14.080 0-27.733 0-42.667 0-5.973 0-6.827-6.827-7.253l-58.88-4.267c-8.533 0-11.093-3.413-11.093-11.52v-11.093c0-9.813 0-10.24 10.24-10.24h66.987c3.413 0 6.827 0 6.827-4.693 0-34.56 3.84-69.12 5.547-104.107 0-8.96 0-11.093 10.24-11.093h36.693c5.547 0 7.253 2.133 7.253 7.68 0 34.133 0 68.267 0 102.827 0 8.107 2.56 9.813 9.813 9.813h128.427c6.4 0 9.813 0 9.387 8.533-0.204 3.632-0.32 7.883-0.32 12.16s0.116 8.528 0.345 12.748l-0.025-0.588c0 5.973 0 8.107-8.107 7.68zM495.36 437.76h-39.68c-5.12 0-7.253 0-7.253 6.827-0.030 2.678-0.047 5.842-0.047 9.010 0 40.757 2.808 80.859 8.242 120.122l-0.515-4.545c3.148 25.429 12.927 48.119 27.533 66.862l-0.227-0.302c16.834 19.355 41.502 31.519 69.010 31.519 4.251 0 8.435-0.291 12.532-0.853l-0.475 0.053c28.981-2.365 54.507-15.498 72.894-35.341l0.066-0.072c9.916-10.167 17.323-22.826 21.193-36.948l0.14-0.599c4.488-11.897 7.087-25.649 7.087-40.009 0-20.536-5.315-39.831-14.643-56.584l0.303 0.593c-9.901-18.198-24.469-32.766-42.119-42.393l-0.547-0.273c-24.725-12.108-53.807-19.188-84.542-19.188-4.482 0-8.928 0.151-13.335 0.447l0.597-0.032z" />
</font>
</defs>
</svg>
